<?xml version="1.0" encoding="utf-8" standalone="no"?>
<!DOCTYPE svg PUBLIC "-//W3C//DTD SVG 1.1//EN"
  "http://www.w3.org/Graphics/SVG/1.1/DTD/svg11.dtd">
<!-- Created with matplotlib (http://matplotlib.org/) -->
<svg height="396pt" version="1.1" viewBox="0 0 504 396" width="504pt" xmlns="http://www.w3.org/2000/svg" xmlns:xlink="http://www.w3.org/1999/xlink">
 <defs>
  <style type="text/css">
*{stroke-linecap:butt;stroke-linejoin:round;}
  </style>
 </defs>
 <g id="figure_1">
  <g id="patch_1">
   <path d="M 0 396 
L 504 396 
L 504 0 
L 0 0 
z
" style="fill:#ffffff;"/>
  </g>
  <g id="axes_1">
   <g id="patch_2">
    <path d="M 65.155651 336.759378 
L 479.492857 336.759378 
L 479.492857 12.2 
L 65.155651 12.2 
z
" style="fill:#ffffff;"/>
   </g>
   <g id="matplotlib.axis_1">
    <g id="xtick_1">
     <g id="line2d_1">
      <path clip-path="url(#p04e624898b)" d="M 65.155651 336.759378 
L 65.155651 12.2 
" style="fill:none;stroke:#b0b0b0;stroke-linecap:square;stroke-width:0.8;"/>
     </g>
     <g id="line2d_2">
      <defs>
       <path d="M 0 0 
L 0 3.5 
" id="m27b9624a3e" style="stroke:#000000;stroke-width:0.8;"/>
      </defs>
      <g>
       <use style="stroke:#000000;stroke-width:0.8;" x="65.155651" xlink:href="#m27b9624a3e" y="336.759378"/>
      </g>
     </g>
     <g id="text_1">
      <!-- $8$ -->
      <defs>
       <path d="M 27.203125 35.375 
C 33.5 38.546875 39.90625 43.328125 39.90625 50.984375 
C 39.90625 60.015625 31.09375 65.296875 23 65.296875 
C 13.90625 65.296875 5.90625 58.734375 5.90625 49.6875 
C 5.90625 47.203125 6.5 42.921875 10.40625 39.140625 
C 11.40625 38.15625 15.59375 35.171875 18.296875 33.28125 
C 13.796875 30.984375 3.296875 25.53125 3.296875 14.59375 
C 3.296875 4.359375 13.09375 -2 22.796875 -2 
C 33.5 -2 42.5 5.65625 42.5 15.78125 
C 42.5 24.84375 36.40625 29.015625 32.40625 31.703125 
z
M 14.09375 44.09375 
C 13.296875 44.59375 9.296875 47.671875 9.296875 52.359375 
C 9.296875 58.421875 15.59375 63 22.796875 63 
C 30.703125 63 36.5 57.4375 36.5 50.96875 
C 36.5 41.703125 26.09375 36.421875 25.59375 36.421875 
C 25.5 36.421875 25.40625 36.421875 24.59375 37.03125 
z
M 32.5 23.734375 
C 34 22.640625 38.796875 19.375 38.796875 13.296875 
C 38.796875 5.953125 31.40625 0.390625 23 0.390625 
C 13.90625 0.390625 7 6.84375 7 14.6875 
C 7 22.546875 13.09375 29.09375 20 32.1875 
z
" id="CMR17-56"/>
      </defs>
      <g transform="translate(60.586603 357.596375)scale(0.2 -0.2)">
       <use transform="scale(0.996264)" xlink:href="#CMR17-56"/>
      </g>
     </g>
    </g>
    <g id="xtick_2">
     <g id="line2d_3">
      <path clip-path="url(#p04e624898b)" d="M 134.211852 336.759378 
L 134.211852 12.2 
" style="fill:none;stroke:#b0b0b0;stroke-linecap:square;stroke-width:0.8;"/>
     </g>
     <g id="line2d_4">
      <g>
       <use style="stroke:#000000;stroke-width:0.8;" x="134.211852" xlink:href="#m27b9624a3e" y="336.759378"/>
      </g>
     </g>
     <g id="text_2">
      <!-- $16$ -->
      <defs>
       <path d="M 26.59375 63.40625 
C 26.59375 65.5 26.5 65.5 25.09375 65.5 
C 21.203125 61.1875 15.296875 59.796875 9.703125 59.796875 
C 9.40625 59.796875 8.90625 59.796875 8.796875 59.5 
C 8.703125 59.296875 8.703125 59.09375 8.703125 57 
C 11.796875 57 17 57.59375 21 59.984375 
L 21 7.203125 
C 21 3.6875 20.796875 2.5 12.203125 2.5 
L 9.203125 2.5 
L 9.203125 0 
C 14 0 19 0 23.796875 0 
C 28.59375 0 33.59375 0 38.40625 0 
L 38.40625 2.5 
L 35.40625 2.5 
C 26.796875 2.5 26.59375 3.59375 26.59375 7.15625 
z
" id="CMR17-49"/>
       <path d="M 10.59375 34 
C 10.59375 57.65625 21.796875 63 28.296875 63 
C 30.40625 63 35.5 62.640625 37.5 59 
C 35.90625 59 32.90625 59 32.90625 55.515625 
C 32.90625 52.828125 35.09375 51.921875 36.5 51.921875 
C 37.40625 51.921875 40.09375 52.3125 40.09375 55.625 
C 40.09375 61.78125 35.09375 65.296875 28.203125 65.296875 
C 16.296875 65.296875 3.796875 52.96875 3.796875 31 
C 3.796875 3.953125 15.09375 -2 23.09375 -2 
C 32.796875 -2 42 6.671875 42 20.046875 
C 42 32.515625 33.90625 41.59375 23.703125 41.59375 
C 17.59375 41.59375 13.09375 37.609375 10.59375 30.625 
z
M 23.09375 0.390625 
C 10.796875 0.390625 10.796875 18.75 10.796875 22.4375 
C 10.796875 29.625 14.203125 40 23.5 40 
C 25.203125 40 30.09375 40 33.40625 33.125 
C 35.203125 29.21875 35.203125 25.140625 35.203125 20.140625 
C 35.203125 14.75 35.203125 10.78125 33.09375 6.78125 
C 30.90625 2.671875 27.703125 0.390625 23.09375 0.390625 
" id="CMR17-54"/>
      </defs>
      <g transform="translate(125.073756 357.596375)scale(0.2 -0.2)">
       <use transform="scale(0.996264)" xlink:href="#CMR17-49"/>
       <use transform="translate(45.690477 0)scale(0.996264)" xlink:href="#CMR17-54"/>
      </g>
     </g>
    </g>
    <g id="xtick_3">
     <g id="line2d_5">
      <path clip-path="url(#p04e624898b)" d="M 203.268053 336.759378 
L 203.268053 12.2 
" style="fill:none;stroke:#b0b0b0;stroke-linecap:square;stroke-width:0.8;"/>
     </g>
     <g id="line2d_6">
      <g>
       <use style="stroke:#000000;stroke-width:0.8;" x="203.268053" xlink:href="#m27b9624a3e" y="336.759378"/>
      </g>
     </g>
     <g id="text_3">
      <!-- $32$ -->
      <defs>
       <path d="M 22.09375 33.703125 
C 31 33.703125 34.90625 25.96875 34.90625 17.03125 
C 34.90625 5 28.5 0.390625 22.703125 0.390625 
C 17.40625 0.390625 8.796875 3.03125 6.09375 10.828125 
C 6.59375 10.625 7.09375 10.625 7.59375 10.625 
C 10 10.625 11.796875 12.21875 11.796875 14.8125 
C 11.796875 17.703125 9.59375 19 7.59375 19 
C 5.90625 19 3.296875 18.203125 3.296875 14.46875 
C 3.296875 5.234375 12.296875 -2 22.90625 -2 
C 34 -2 42.5 6.71875 42.5 16.953125 
C 42.5 26.671875 34.5 33.703125 25 34.796875 
C 32.59375 36.375 39.90625 43.0625 39.90625 52.015625 
C 39.90625 59.6875 32 65.296875 23 65.296875 
C 13.90625 65.296875 5.90625 59.828125 5.90625 52.015625 
C 5.90625 48.59375 8.5 48 9.796875 48 
C 11.90625 48 13.703125 49.296875 13.703125 51.890625 
C 13.703125 54.46875 11.90625 55.765625 9.796875 55.765625 
C 9.40625 55.765625 8.90625 55.765625 8.5 55.578125 
C 11.40625 61.859375 19.296875 63 22.796875 63 
C 26.296875 63 32.90625 61.328125 32.90625 51.875 
C 32.90625 49.109375 32.5 44.1875 29.09375 39.84375 
C 26.09375 36 22.703125 36 19.40625 35.6875 
C 18.90625 35.6875 16.59375 35.453125 16.203125 35.453125 
C 15.5 35.359375 15.09375 35.265625 15.09375 34.5 
C 15.09375 33.796875 15.203125 33.703125 17.203125 33.703125 
z
" id="CMR17-51"/>
       <path d="M 41.703125 15.453125 
L 39.90625 15.453125 
C 38.90625 8.375 38.09375 7.171875 37.703125 6.5625 
C 37.203125 5.765625 30 5.765625 28.59375 5.765625 
L 9.40625 5.765625 
C 13 9.671875 20 16.75 28.5 24.953125 
C 34.59375 30.734375 41.703125 37.53125 41.703125 47.421875 
C 41.703125 59.21875 32.296875 66 21.796875 66 
C 10.796875 66 4.09375 56.3125 4.09375 47.34375 
C 4.09375 43.4375 7 42.9375 8.203125 42.9375 
C 9.203125 42.9375 12.203125 43.546875 12.203125 47.03125 
C 12.203125 50.109375 9.59375 51 8.203125 51 
C 7.59375 51 7 50.90625 6.59375 50.703125 
C 8.5 59.21875 14.296875 63.40625 20.40625 63.40625 
C 29.09375 63.40625 34.796875 56.515625 34.796875 47.421875 
C 34.796875 38.734375 29.703125 31.25 24 24.75 
L 4.09375 2.28125 
L 4.09375 0 
L 39.296875 0 
z
" id="CMR17-50"/>
      </defs>
      <g transform="translate(194.129957 357.596375)scale(0.2 -0.2)">
       <use transform="scale(0.996264)" xlink:href="#CMR17-51"/>
       <use transform="translate(45.690477 0)scale(0.996264)" xlink:href="#CMR17-50"/>
      </g>
     </g>
    </g>
    <g id="xtick_4">
     <g id="line2d_7">
      <path clip-path="url(#p04e624898b)" d="M 272.324254 336.759378 
L 272.324254 12.2 
" style="fill:none;stroke:#b0b0b0;stroke-linecap:square;stroke-width:0.8;"/>
     </g>
     <g id="line2d_8">
      <g>
       <use style="stroke:#000000;stroke-width:0.8;" x="272.324254" xlink:href="#m27b9624a3e" y="336.759378"/>
      </g>
     </g>
     <g id="text_4">
      <!-- $64$ -->
      <defs>
       <path d="M 33.59375 64.40625 
C 33.59375 66.5 33.5 66.5 31.703125 66.5 
L 2 19.59375 
L 2 17 
L 27.796875 17 
L 27.796875 7.140625 
C 27.796875 3.5 27.59375 2.5 20.59375 2.5 
L 18.703125 2.5 
L 18.703125 0 
C 21.90625 0 27.296875 0 30.703125 0 
C 34.09375 0 39.5 0 42.703125 0 
L 42.703125 2.5 
L 40.796875 2.5 
C 33.796875 2.5 33.59375 3.5 33.59375 7.140625 
L 33.59375 17 
L 43.796875 17 
L 43.796875 19.59375 
L 33.59375 19.59375 
z
M 28.09375 57.859375 
L 28.09375 19.59375 
L 4 19.59375 
z
" id="CMR17-52"/>
      </defs>
      <g transform="translate(263.186158 357.596375)scale(0.2 -0.2)">
       <use transform="scale(0.996264)" xlink:href="#CMR17-54"/>
       <use transform="translate(45.690477 0)scale(0.996264)" xlink:href="#CMR17-52"/>
      </g>
     </g>
    </g>
    <g id="xtick_5">
     <g id="line2d_9">
      <path clip-path="url(#p04e624898b)" d="M 341.380455 336.759378 
L 341.380455 12.2 
" style="fill:none;stroke:#b0b0b0;stroke-linecap:square;stroke-width:0.8;"/>
     </g>
     <g id="line2d_10">
      <g>
       <use style="stroke:#000000;stroke-width:0.8;" x="341.380455" xlink:href="#m27b9624a3e" y="336.759378"/>
      </g>
     </g>
     <g id="text_5">
      <!-- $128$ -->
      <g transform="translate(327.673312 357.596375)scale(0.2 -0.2)">
       <use transform="scale(0.996264)" xlink:href="#CMR17-49"/>
       <use transform="translate(45.690477 0)scale(0.996264)" xlink:href="#CMR17-50"/>
       <use transform="translate(91.380954 0)scale(0.996264)" xlink:href="#CMR17-56"/>
      </g>
     </g>
    </g>
    <g id="xtick_6">
     <g id="line2d_11">
      <path clip-path="url(#p04e624898b)" d="M 410.436656 336.759378 
L 410.436656 12.2 
" style="fill:none;stroke:#b0b0b0;stroke-linecap:square;stroke-width:0.8;"/>
     </g>
     <g id="line2d_12">
      <g>
       <use style="stroke:#000000;stroke-width:0.8;" x="410.436656" xlink:href="#m27b9624a3e" y="336.759378"/>
      </g>
     </g>
     <g id="text_6">
      <!-- $256$ -->
      <defs>
       <path d="M 11.40625 57.6875 
C 12.40625 57.28125 16.5 56 20.703125 56 
C 30 56 35.09375 61.109375 38 64.0625 
C 38 64.953125 38 65.5 37.40625 65.5 
C 37.296875 65.5 37.09375 65.5 36.296875 65.046875 
C 32.796875 63.40625 28.703125 62.078125 23.703125 62.078125 
C 20.703125 62.078125 16.203125 62.484375 11.296875 64.671875 
C 10.203125 65.171875 10 65.171875 9.90625 65.171875 
C 9.40625 65.171875 9.296875 65.0625 9.296875 63.078125 
L 9.296875 34.421875 
C 9.296875 32.640625 9.296875 32.140625 10.296875 32.140625 
C 10.796875 32.140625 11 32.34375 11.5 33.03125 
C 14.703125 37.515625 19.09375 39.40625 24.09375 39.40625 
C 27.59375 39.40625 35.09375 37.21875 35.09375 20.140625 
C 35.09375 16.953125 35.09375 11.171875 32.09375 6.578125 
C 29.59375 2.484375 25.703125 0.390625 21.40625 0.390625 
C 14.796875 0.390625 8.09375 5 6.296875 12.71875 
C 6.703125 12.609375 7.5 12.421875 7.90625 12.421875 
C 9.203125 12.421875 11.703125 13.125 11.703125 16.21875 
C 11.703125 18.90625 9.796875 20 7.90625 20 
C 5.59375 20 4.09375 18.59375 4.09375 15.796875 
C 4.09375 7.09375 11 -2 21.59375 -2 
C 31.90625 -2 41.703125 6.875 41.703125 19.75 
C 41.703125 31.71875 33.90625 41 24.203125 41 
C 19.09375 41 14.796875 39.109375 11.40625 35.53125 
z
" id="CMR17-53"/>
      </defs>
      <g transform="translate(396.729513 357.596375)scale(0.2 -0.2)">
       <use transform="scale(0.996264)" xlink:href="#CMR17-50"/>
       <use transform="translate(45.690477 0)scale(0.996264)" xlink:href="#CMR17-53"/>
       <use transform="translate(91.380954 0)scale(0.996264)" xlink:href="#CMR17-54"/>
      </g>
     </g>
    </g>
    <g id="xtick_7">
     <g id="line2d_13">
      <path clip-path="url(#p04e624898b)" d="M 479.492857 336.759378 
L 479.492857 12.2 
" style="fill:none;stroke:#b0b0b0;stroke-linecap:square;stroke-width:0.8;"/>
     </g>
     <g id="line2d_14">
      <g>
       <use style="stroke:#000000;stroke-width:0.8;" x="479.492857" xlink:href="#m27b9624a3e" y="336.759378"/>
      </g>
     </g>
     <g id="text_7">
      <!-- $512$ -->
      <g transform="translate(465.785714 357.596375)scale(0.2 -0.2)">
       <use transform="scale(0.996264)" xlink:href="#CMR17-53"/>
       <use transform="translate(45.690477 0)scale(0.996264)" xlink:href="#CMR17-49"/>
       <use transform="translate(91.380954 0)scale(0.996264)" xlink:href="#CMR17-50"/>
      </g>
     </g>
    </g>
    <g id="text_8">
     <!-- $\mbox{Systems size :}~ n_x~~(\mbox{Nb of systems:}~n_y=n_x^2)$ -->
     <defs>
      <path d="M 43.703125 65.140625 
C 39.296875 67.71875 34.5 70 26.40625 70 
C 13.5 70 5.203125 60.609375 5.203125 51.03125 
C 5.203125 47.265625 6.296875 43.015625 10.203125 38.671875 
C 14.09375 34.3125 18.5 33.140625 24.09375 31.765625 
C 26.40625 31.15625 30.296875 30.0625 31 29.78125 
C 36.59375 27.609375 39.296875 22.5625 39.296875 17.8125 
C 39.296875 11.59375 34.40625 4.96875 25.703125 4.96875 
C 22.703125 4.96875 13.90625 4.96875 5.59375 12.796875 
L 4.203125 4.96875 
C 12.40625 -1 21.296875 -2 25.796875 -2 
C 38.09375 -2 46.90625 7.625 46.90625 18.53125 
C 46.90625 22.5 45.703125 27.546875 41.5 32.203125 
C 37.40625 36.671875 33.796875 37.65625 25.59375 39.828125 
C 20.90625 41.03125 17.90625 41.828125 15.40625 44.890625 
C 13.703125 47.078125 12.796875 49.15625 12.796875 51.828125 
C 12.796875 57.390625 17.59375 63.4375 26.40625 63.4375 
C 30.796875 63.4375 36.5 62.53125 42.296875 57.1875 
z
" id="CMSS17-83"/>
      <path d="M 41.796875 43 
L 34 43 
C 25.5 20.21875 22.59375 10.96875 22.40625 5.984375 
L 22.296875 5.984375 
C 22 10.875 17.59375 22.8125 14.09375 31.359375 
L 9.40625 43 
L 1.296875 43 
L 19 0.203125 
C 17.90625 -2.78125 16.296875 -7.265625 15.796875 -8.265625 
C 13.59375 -13.828125 12.09375 -13.828125 10.5 -13.828125 
C 10.09375 -13.828125 6.90625 -13.828125 3.296875 -12.640625 
L 3.90625 -19.203125 
C 6.40625 -19.703125 8.90625 -20 10.703125 -20 
C 13.203125 -20 18.203125 -20 22.796875 -7.765625 
z
" id="CMSS17-121"/>
      <path d="M 32.203125 41.046875 
C 26.296875 43.859375 21.703125 43.859375 18.703125 43.859375 
C 11.59375 43.859375 3.09375 41.375 3.09375 31.296875 
C 3.09375 21.234375 14.09375 19.03125 17.09375 18.421875 
C 21.703125 17.53125 26.796875 16.53125 26.796875 11.5625 
C 26.796875 5.265625 19.59375 5.265625 18.296875 5.265625 
C 14.296875 5.265625 8.796875 6.359375 3.796875 9.96875 
L 2.59375 3.28125 
C 8.296875 0 13.796875 -1 18.40625 -1 
C 30.703125 -1 33.796875 6.5 33.796875 12.203125 
C 33.796875 17.09375 31 20.390625 29.09375 21.890625 
C 25.796875 24.5 24.59375 24.796875 16.40625 26.5 
C 15 26.703125 10.09375 27.796875 10.09375 32.28125 
C 10.09375 38 16.40625 38 17.796875 38 
C 24.296875 38 28.296875 35.984375 31 34.5 
z
" id="CMSS17-115"/>
      <path d="M 16.703125 37 
L 29.703125 37 
L 29.703125 42.765625 
L 16.703125 42.765625 
L 16.703125 55 
L 9.59375 55 
L 9.59375 42.765625 
L 1.703125 42.765625 
L 1.703125 37 
L 9.40625 37 
L 9.40625 11.703125 
C 9.40625 6 10.703125 -1 17.296875 -1 
C 22.296875 -1 26.90625 0.390625 31.296875 2.6875 
L 29.703125 8.5625 
C 27.296875 6.46875 24.40625 5.265625 21.296875 5.265625 
C 16.90625 5.265625 16.703125 10.875 16.703125 13.375 
z
" id="CMSS17-116"/>
      <path d="M 39.09375 21.515625 
C 39.09375 24.84375 38.90625 31.296875 35.703125 36.640625 
C 32.203125 42.390625 26.5 44 22.203125 44 
C 11.796875 44 3 34.1875 3 21.484375 
C 3 9.09375 12.09375 -1 23.59375 -1 
C 28.09375 -1 33.59375 0.296875 38.59375 3.875 
C 38.59375 4.28125 38.40625 6.46875 38.296875 6.5625 
C 38.296875 6.765625 38 9.84375 38 10.25 
C 33.203125 6.359375 27.703125 5.078125 23.703125 5.078125 
C 17.296875 5.078125 10.40625 10.421875 10.09375 21.515625 
z
M 10.90625 27 
C 12.203125 32.5625 16.59375 37.828125 22.203125 37.828125 
C 23.703125 37.828125 30.703125 37.828125 32.5 27 
z
" id="CMSS17-101"/>
      <path d="M 67 29.328125 
C 67 36.0625 65.296875 44 54.09375 44 
C 46.59375 44 42.09375 39.3125 40.09375 36.421875 
C 38.296875 41.71875 34.09375 44 28.09375 44 
C 21.296875 44 17 40.125 14.703125 37.328125 
L 14.703125 43.09375 
L 7.40625 43.09375 
L 7.40625 0 
L 15 0 
L 15 24.359375 
C 15 30.296875 17.203125 37.9375 24.296875 37.9375 
C 33.40625 37.9375 33.40625 31.5 33.40625 28.578125 
L 33.40625 0 
L 41 0 
L 41 24.359375 
C 41 30.296875 43.203125 37.9375 50.296875 37.9375 
C 59.40625 37.9375 59.40625 31.5 59.40625 28.578125 
L 59.40625 0 
L 67 0 
z
" id="CMSS17-109"/>
      <path d="M 15.296875 65.359375 
L 6.90625 65.359375 
L 6.90625 57 
L 15.296875 57 
z
M 14.796875 42.796875 
L 7.40625 42.796875 
L 7.40625 0 
L 14.796875 0 
z
" id="CMSS17-105"/>
      <path d="M 37.5 39.09375 
L 37.5 42.96875 
L 3.90625 42.96875 
L 3.90625 37 
L 16.703125 37 
C 17.90625 37 19.09375 37 20.296875 37 
L 27.296875 37 
L 2.59375 4.078125 
L 2.59375 0 
L 37.796875 0 
L 37.796875 6.171875 
L 24.203125 6.171875 
C 23 6.171875 21.796875 6.171875 20.59375 6.171875 
L 12.90625 6.171875 
z
" id="CMSS17-122"/>
      <path d="M 17 42.953125 
L 9 42.953125 
L 9 35 
L 17 35 
z
M 9 7.96875 
L 9 0 
L 17 0 
L 17 7.96875 
z
" id="CMSS17-58"/>
      <path d="M 20.59375 29.234375 
C 20.796875 29.84375 23.296875 34.828125 27 38.015625 
C 29.59375 40.40625 33 42.015625 36.90625 42.015625 
C 40.90625 42.015625 42.296875 39.015625 42.296875 35.03125 
C 42.296875 29.34375 38.203125 17.96875 36.203125 12.578125 
C 35.296875 10.171875 34.796875 8.875 34.796875 7.078125 
C 34.796875 2.59375 37.90625 -1 42.703125 -1 
C 52 -1 55.5 13.671875 55.5 14.265625 
C 55.5 14.765625 55.09375 15.171875 54.5 15.171875 
C 53.59375 15.171875 53.5 14.875 53 13.171875 
C 50.703125 4.984375 46.90625 1 43 1 
C 42 1 40.40625 1 40.40625 4.203125 
C 40.40625 6.703125 41.5 9.703125 42.09375 11.09375 
C 44.09375 16.609375 48.296875 27.8125 48.296875 33.515625 
C 48.296875 39.5 44.796875 44 37.203125 44 
C 28.296875 44 23.59375 37.734375 21.796875 35.234375 
C 21.5 40.90625 17.40625 44 13 44 
C 9.796875 44 7.59375 42.109375 5.90625 38.71875 
C 4.09375 35.125 2.703125 29.140625 2.703125 28.734375 
C 2.703125 28.34375 3.09375 27.84375 3.796875 27.84375 
C 4.59375 27.84375 4.703125 27.9375 5.296875 30.234375 
C 6.90625 36.328125 8.703125 42.015625 12.703125 42.015625 
C 15 42.015625 15.796875 40.40625 15.796875 37.421875 
C 15.796875 35.21875 14.796875 31.328125 14.09375 28.234375 
L 11.296875 17.46875 
C 10.90625 15.5625 9.796875 11.078125 9.296875 9.28125 
C 8.59375 6.6875 7.5 2 7.5 1.5 
C 7.5 0.09375 8.59375 -1 10.09375 -1 
C 11.296875 -1 12.703125 -0.40625 13.5 1.09375 
C 13.703125 1.59375 14.59375 5.09375 15.09375 7.078125 
L 17.296875 16.0625 
z
" id="CMMI12-110"/>
      <path d="M 47.40625 40.71875 
C 44.203125 40.109375 43 37.71875 43 35.828125 
C 43 33.421875 44.90625 32.625 46.296875 32.625 
C 49.296875 32.625 51.40625 35.21875 51.40625 37.921875 
C 51.40625 42.109375 46.59375 44 42.40625 44 
C 36.296875 44 32.90625 38.015625 32 36.125 
C 29.703125 44 23.5 44 21.703125 44 
C 11.5 44 6.09375 30.9375 6.09375 28.734375 
C 6.09375 28.34375 6.5 27.84375 7.203125 27.84375 
C 8 27.84375 8.203125 28.4375 8.40625 28.84375 
C 11.796875 39.921875 18.5 42.015625 21.40625 42.015625 
C 25.90625 42.015625 26.796875 37.8125 26.796875 35.421875 
C 26.796875 33.234375 26.203125 30.9375 25 26.140625 
L 21.59375 12.46875 
C 20.09375 6.484375 17.203125 1 11.90625 1 
C 11.40625 1 8.90625 1 6.796875 2.296875 
C 10.40625 3 11.203125 5.984375 11.203125 7.1875 
C 11.203125 9.1875 9.703125 10.375 7.796875 10.375 
C 5.40625 10.375 2.796875 8.28125 2.796875 5.09375 
C 2.796875 0.890625 7.5 -1 11.796875 -1 
C 16.59375 -1 20 2.796875 22.09375 6.890625 
C 23.703125 1 28.703125 -1 32.40625 -1 
C 42.59375 -1 48 12.078125 48 14.265625 
C 48 14.765625 47.59375 15.171875 47 15.171875 
C 46.09375 15.171875 46 14.671875 45.703125 13.875 
C 43 5.09375 37.203125 1 32.703125 1 
C 29.203125 1 27.296875 3.59375 27.296875 7.6875 
C 27.296875 9.875 27.703125 11.46875 29.296875 18.0625 
L 32.796875 31.625 
C 34.296875 37.625 37.703125 42.015625 42.296875 42.015625 
C 42.5 42.015625 45.296875 42.015625 47.40625 40.71875 
" id="CMMI12-120"/>
      <path d="M 30.59375 -24.390625 
C 30.59375 -24.296875 30.59375 -24.09375 30.296875 -23.796875 
C 25.703125 -19.125 13.40625 -6.359375 13.40625 24.703125 
C 13.40625 55.765625 25.5 68.421875 30.40625 73.390625 
C 30.40625 73.5 30.59375 73.703125 30.59375 74 
C 30.59375 74.296875 30.296875 74.5 29.90625 74.5 
C 28.796875 74.5 20.296875 67.125 15.40625 56.15625 
C 10.40625 45.109375 9 34.359375 9 24.8125 
C 9 17.625 9.703125 5.484375 15.703125 -7.359375 
C 20.5 -17.734375 28.703125 -25 29.90625 -25 
C 30.40625 -25 30.59375 -24.796875 30.59375 -24.390625 
" id="CMR17-40"/>
      <path d="M 22.90625 65.3125 
L 21.09375 69 
L 8.796875 69 
L 8.796875 0 
L 16.59375 0 
L 16.59375 61.34375 
L 16.703125 61.4375 
C 17.40625 59.640625 17.796875 58.75 21.90625 49.90625 
L 43.296875 3.6875 
L 45.09375 0 
L 57.40625 0 
L 57.40625 69 
L 49.59375 69 
L 49.59375 7.65625 
L 49.5 7.546875 
C 48.796875 9.34375 48.40625 10.234375 44.296875 19.078125 
z
" id="CMSS17-78"/>
      <path d="M 14.90625 69 
L 7.5 69 
L 7.5 -0.203125 
L 15.09375 -0.203125 
L 15.09375 4.28125 
C 18.90625 0.59375 23.5 -1 27.59375 -1 
C 37.203125 -1 45 8.578125 45 21.125 
C 45 32.59375 39 43.0625 30.09375 43.0625 
C 23.796875 43.0625 18.203125 40.484375 14.90625 37.796875 
z
M 15.09375 31.96875 
C 17.296875 34.71875 20.40625 37 24.796875 37 
C 30.703125 37 37.40625 32.765625 37.40625 21.125 
C 37.40625 8.71875 29.40625 5.078125 23.90625 5.078125 
C 21.90625 5.078125 19.796875 5.5625 17.796875 7.25 
C 15.09375 9.609375 15.09375 11.078125 15.09375 12.453125 
z
" id="CMSS17-98"/>
      <path d="M 44.203125 21.1875 
C 44.203125 34 34.703125 44 23.5 44 
C 12 44 2.703125 33.703125 2.703125 21.1875 
C 2.703125 8.5 12.296875 -1 23.40625 -1 
C 34.796875 -1 44.203125 8.796875 44.203125 21.1875 
M 23.5 5.265625 
C 16.40625 5.265625 10.296875 11.078125 10.296875 22 
C 10.296875 33.609375 17.40625 37.921875 23.40625 37.921875 
C 29.90625 37.921875 36.59375 33.21875 36.59375 22 
C 36.59375 10.671875 30.09375 5.265625 23.5 5.265625 
" id="CMSS17-111"/>
      <path d="M 16.796875 37 
L 26.90625 37 
L 26.90625 42.765625 
L 16.59375 42.765625 
L 16.59375 55.609375 
C 16.59375 62.71875 22 63.9375 25.09375 63.9375 
C 26.09375 63.9375 28.90625 63.9375 32.5 62.640625 
L 32.5 69.203125 
C 30.203125 69.703125 27.40625 70 25.203125 70 
C 15.90625 70 9.40625 62.390625 9.40625 52.484375 
L 9.40625 42.765625 
L 2.5 42.765625 
L 2.5 37 
L 9.40625 37 
L 9.40625 0 
L 16.796875 0 
z
" id="CMSS17-102"/>
      <path d="M 26.296875 -10.9375 
C 23.59375 -14.671875 19.703125 -18 14.796875 -18 
C 13.59375 -18 8.796875 -18 7.296875 -13.890625 
C 7.59375 -13.984375 8.09375 -13.984375 8.296875 -13.984375 
C 11.296875 -13.984375 13.296875 -11.390625 13.296875 -9.09375 
C 13.296875 -6.796875 11.40625 -6 9.90625 -6 
C 8.296875 -6 4.796875 -7.15625 4.796875 -11.859375 
C 4.796875 -16.734375 9.09375 -20.09375 14.796875 -20.09375 
C 24.796875 -20.09375 34.90625 -10.9375 37.703125 0.09375 
L 47.5 38.828125 
C 47.59375 39.328125 47.796875 39.9375 47.796875 40.53125 
C 47.796875 42.015625 46.59375 43.015625 45.09375 43.015625 
C 44.203125 43.015625 42.09375 42.609375 41.296875 39.609375 
L 33.90625 10.28125 
C 33.40625 8.484375 33.40625 8.28125 32.59375 7.1875 
C 30.59375 4.390625 27.296875 1 22.5 1 
C 16.90625 1 16.40625 6.484375 16.40625 9.1875 
C 16.40625 14.875 19.09375 22.546875 21.796875 29.734375 
C 22.90625 32.625 23.5 34.03125 23.5 36.015625 
C 23.5 40.21875 20.5 44 15.59375 44 
C 6.40625 44 2.703125 29.53125 2.703125 28.734375 
C 2.703125 28.34375 3.09375 27.84375 3.796875 27.84375 
C 4.703125 27.84375 4.796875 28.234375 5.203125 29.640625 
C 7.59375 38.015625 11.40625 42.015625 15.296875 42.015625 
C 16.203125 42.015625 17.90625 42.015625 17.90625 38.71875 
C 17.90625 36.125 16.796875 33.234375 15.296875 29.4375 
C 10.40625 16.359375 10.40625 13.078125 10.40625 10.671875 
C 10.40625 1.203125 17.203125 -1 22.203125 -1 
C 25.09375 -1 28.703125 -0.09375 32.203125 3.59375 
L 32.296875 3.5 
C 30.796875 -2.296875 29.796875 -6.125 26.296875 -10.9375 
" id="CMMI12-121"/>
      <path d="M 64.296875 31.515625 
C 65.796875 31.515625 67.296875 31.515625 67.296875 33.203125 
C 67.296875 35 65.59375 35 63.90625 35 
L 8 35 
C 6.296875 35 4.59375 35 4.59375 33.203125 
C 4.59375 31.515625 6.09375 31.515625 7.59375 31.515625 
z
M 63.90625 14 
C 65.59375 14 67.296875 14 67.296875 15.796875 
C 67.296875 17.484375 65.796875 17.484375 64.296875 17.484375 
L 7.59375 17.484375 
C 6.09375 17.484375 4.59375 17.484375 4.59375 15.796875 
C 4.59375 14 6.296875 14 8 14 
z
" id="CMR17-61"/>
      <path d="M 26.296875 24.703125 
C 26.296875 31.875 25.59375 44.015625 19.59375 56.859375 
C 14.796875 67.234375 6.59375 74.5 5.40625 74.5 
C 5.09375 74.5 4.703125 74.390625 4.703125 73.890625 
C 4.703125 73.703125 4.796875 73.59375 4.90625 73.390625 
C 9.703125 68.40625 21.90625 55.75 21.90625 24.75 
C 21.90625 -6.359375 9.796875 -19.015625 4.90625 -24.015625 
C 4.796875 -24.203125 4.703125 -24.3125 4.703125 -24.5 
C 4.703125 -25 5.09375 -25 5.40625 -25 
C 6.5 -25 15 -17.625 19.90625 -6.65625 
C 24.90625 4.390625 26.296875 15.140625 26.296875 24.703125 
" id="CMR17-41"/>
     </defs>
     <g transform="translate(115.448427 381.711936)scale(0.18 -0.18)">
      <use transform="translate(0 24.62935)scale(0.996264)" xlink:href="#CMSS17-83"/>
      <use transform="translate(52.048516 24.62935)scale(0.996264)" xlink:href="#CMSS17-121"/>
      <use transform="translate(95.048658 24.62935)scale(0.996264)" xlink:href="#CMSS17-115"/>
      <use transform="translate(130.9622 24.62935)scale(0.996264)" xlink:href="#CMSS17-116"/>
      <use transform="translate(164.793767 24.62935)scale(0.996264)" xlink:href="#CMSS17-101"/>
      <use transform="translate(206.432589 24.62935)scale(0.996264)" xlink:href="#CMSS17-109"/>
      <use transform="translate(280.661843 24.62935)scale(0.996264)" xlink:href="#CMSS17-115"/>
      <use transform="translate(347.804498 24.62935)scale(0.996264)" xlink:href="#CMSS17-115"/>
      <use transform="translate(383.71804 24.62935)scale(0.996264)" xlink:href="#CMSS17-105"/>
      <use transform="translate(405.898763 24.62935)scale(0.996264)" xlink:href="#CMSS17-122"/>
      <use transform="translate(446.576635 24.62935)scale(0.996264)" xlink:href="#CMSS17-101"/>
      <use transform="translate(519.444569 24.62935)scale(0.996264)" xlink:href="#CMSS17-58"/>
      <use transform="translate(576.697887 24.62935)scale(0.996264)" xlink:href="#CMMI12-110"/>
      <use transform="translate(634.927934 9.685436)scale(0.697382)" xlink:href="#CMMI12-120"/>
      <use transform="translate(736.687951 24.62935)scale(0.996264)" xlink:href="#CMR17-40"/>
      <use transform="translate(771.968719 24.62935)scale(0.996264)" xlink:href="#CMSS17-78"/>
      <use transform="translate(838.030238 24.62935)scale(0.996264)" xlink:href="#CMSS17-98"/>
      <use transform="translate(917.464294 24.62935)scale(0.996264)" xlink:href="#CMSS17-111"/>
      <use transform="translate(964.307918 24.62935)scale(0.996264)" xlink:href="#CMSS17-102"/>
      <use transform="translate(1024.163689 24.62935)scale(0.996264)" xlink:href="#CMSS17-115"/>
      <use transform="translate(1060.077231 24.62935)scale(0.996264)" xlink:href="#CMSS17-121"/>
      <use transform="translate(1103.077373 24.62935)scale(0.996264)" xlink:href="#CMSS17-115"/>
      <use transform="translate(1138.990915 24.62935)scale(0.996264)" xlink:href="#CMSS17-116"/>
      <use transform="translate(1172.822481 24.62935)scale(0.996264)" xlink:href="#CMSS17-101"/>
      <use transform="translate(1214.461304 24.62935)scale(0.996264)" xlink:href="#CMSS17-109"/>
      <use transform="translate(1288.690558 24.62935)scale(0.996264)" xlink:href="#CMSS17-115"/>
      <use transform="translate(1324.6041 24.62935)scale(0.996264)" xlink:href="#CMSS17-58"/>
      <use transform="translate(1381.857418 24.62935)scale(0.996264)" xlink:href="#CMMI12-110"/>
      <use transform="translate(1440.087465 9.685436)scale(0.697382)" xlink:href="#CMMI12-121"/>
      <use transform="translate(1504.05658 24.62935)scale(0.996264)" xlink:href="#CMR17-61"/>
      <use transform="translate(1603.445378 24.62935)scale(0.996264)" xlink:href="#CMMI12-110"/>
      <use transform="translate(1661.675425 60.782989)scale(0.697382)" xlink:href="#CMR17-50"/>
      <use transform="translate(1661.675425 0)scale(0.697382)" xlink:href="#CMMI12-120"/>
      <use transform="translate(1700.977216 24.62935)scale(0.996264)" xlink:href="#CMR17-41"/>
     </g>
    </g>
   </g>
   <g id="matplotlib.axis_2">
    <g id="ytick_1">
     <g id="line2d_15">
      <path clip-path="url(#p04e624898b)" d="M 65.155651 336.759378 
L 479.492857 336.759378 
" style="fill:none;stroke:#b0b0b0;stroke-linecap:square;stroke-width:0.8;"/>
     </g>
     <g id="line2d_16">
      <defs>
       <path d="M 0 0 
L -3.5 0 
" id="m34f88098f3" style="stroke:#000000;stroke-width:0.8;"/>
      </defs>
      <g>
       <use style="stroke:#000000;stroke-width:0.8;" x="65.155651" xlink:href="#m34f88098f3" y="336.759378"/>
      </g>
     </g>
     <g id="text_9">
      <!-- $0$ -->
      <defs>
       <path d="M 42 31.640625 
C 42 37.75 41.90625 48.125 37.703125 56.109375 
C 34 63.109375 28.09375 65.59375 22.90625 65.59375 
C 18.09375 65.59375 12 63.40625 8.203125 56.203125 
C 4.203125 48.71875 3.796875 39.4375 3.796875 31.640625 
C 3.796875 25.953125 3.90625 17.28125 7 9.671875 
C 11.296875 -0.609375 19 -2 22.90625 -2 
C 27.5 -2 34.5 -0.109375 38.59375 9.375 
C 41.59375 16.28125 42 24.359375 42 31.640625 
M 22.90625 -0.40625 
C 16.5 -0.40625 12.703125 5.078125 11.296875 12.6875 
C 10.203125 18.5625 10.203125 27.15625 10.203125 32.75 
C 10.203125 40.4375 10.203125 46.828125 11.5 52.921875 
C 13.40625 61.390625 19 64 22.90625 64 
C 27 64 32.296875 61.296875 34.203125 53.125 
C 35.5 47.4375 35.59375 40.734375 35.59375 32.75 
C 35.59375 26.25 35.59375 18.265625 34.40625 12.375 
C 32.296875 1.484375 26.40625 -0.40625 22.90625 -0.40625 
" id="CMR17-48"/>
      </defs>
      <g transform="translate(49.017555 343.677877)scale(0.2 -0.2)">
       <use transform="scale(0.996264)" xlink:href="#CMR17-48"/>
      </g>
     </g>
    </g>
    <g id="ytick_2">
     <g id="line2d_17">
      <path clip-path="url(#p04e624898b)" d="M 65.155651 273.382757 
L 479.492857 273.382757 
" style="fill:none;stroke:#b0b0b0;stroke-linecap:square;stroke-width:0.8;"/>
     </g>
     <g id="line2d_18">
      <g>
       <use style="stroke:#000000;stroke-width:0.8;" x="65.155651" xlink:href="#m34f88098f3" y="273.382757"/>
      </g>
     </g>
     <g id="text_10">
      <!-- $20$ -->
      <g transform="translate(39.87946 280.301255)scale(0.2 -0.2)">
       <use transform="scale(0.996264)" xlink:href="#CMR17-50"/>
       <use transform="translate(45.690477 0)scale(0.996264)" xlink:href="#CMR17-48"/>
      </g>
     </g>
    </g>
    <g id="ytick_3">
     <g id="line2d_19">
      <path clip-path="url(#p04e624898b)" d="M 65.155651 210.006135 
L 479.492857 210.006135 
" style="fill:none;stroke:#b0b0b0;stroke-linecap:square;stroke-width:0.8;"/>
     </g>
     <g id="line2d_20">
      <g>
       <use style="stroke:#000000;stroke-width:0.8;" x="65.155651" xlink:href="#m34f88098f3" y="210.006135"/>
      </g>
     </g>
     <g id="text_11">
      <!-- $40$ -->
      <g transform="translate(39.87946 216.924634)scale(0.2 -0.2)">
       <use transform="scale(0.996264)" xlink:href="#CMR17-52"/>
       <use transform="translate(45.690477 0)scale(0.996264)" xlink:href="#CMR17-48"/>
      </g>
     </g>
    </g>
    <g id="ytick_4">
     <g id="line2d_21">
      <path clip-path="url(#p04e624898b)" d="M 65.155651 146.629514 
L 479.492857 146.629514 
" style="fill:none;stroke:#b0b0b0;stroke-linecap:square;stroke-width:0.8;"/>
     </g>
     <g id="line2d_22">
      <g>
       <use style="stroke:#000000;stroke-width:0.8;" x="65.155651" xlink:href="#m34f88098f3" y="146.629514"/>
      </g>
     </g>
     <g id="text_12">
      <!-- $60$ -->
      <g transform="translate(39.87946 153.548013)scale(0.2 -0.2)">
       <use transform="scale(0.996264)" xlink:href="#CMR17-54"/>
       <use transform="translate(45.690477 0)scale(0.996264)" xlink:href="#CMR17-48"/>
      </g>
     </g>
    </g>
    <g id="ytick_5">
     <g id="line2d_23">
      <path clip-path="url(#p04e624898b)" d="M 65.155651 83.252893 
L 479.492857 83.252893 
" style="fill:none;stroke:#b0b0b0;stroke-linecap:square;stroke-width:0.8;"/>
     </g>
     <g id="line2d_24">
      <g>
       <use style="stroke:#000000;stroke-width:0.8;" x="65.155651" xlink:href="#m34f88098f3" y="83.252893"/>
      </g>
     </g>
     <g id="text_13">
      <!-- $80$ -->
      <g transform="translate(39.87946 90.171391)scale(0.2 -0.2)">
       <use transform="scale(0.996264)" xlink:href="#CMR17-56"/>
       <use transform="translate(45.690477 0)scale(0.996264)" xlink:href="#CMR17-48"/>
      </g>
     </g>
    </g>
    <g id="ytick_6">
     <g id="line2d_25">
      <path clip-path="url(#p04e624898b)" d="M 65.155651 19.876271 
L 479.492857 19.876271 
" style="fill:none;stroke:#b0b0b0;stroke-linecap:square;stroke-width:0.8;"/>
     </g>
     <g id="line2d_26">
      <g>
       <use style="stroke:#000000;stroke-width:0.8;" x="65.155651" xlink:href="#m34f88098f3" y="19.876271"/>
      </g>
     </g>
     <g id="text_14">
      <!-- $100$ -->
      <g transform="translate(30.741364 26.79477)scale(0.2 -0.2)">
       <use transform="scale(0.996264)" xlink:href="#CMR17-49"/>
       <use transform="translate(45.690477 0)scale(0.996264)" xlink:href="#CMR17-48"/>
       <use transform="translate(91.380954 0)scale(0.996264)" xlink:href="#CMR17-48"/>
      </g>
     </g>
    </g>
    <g id="text_15">
     <!-- $\mbox{GFlops}$ -->
     <defs>
      <path d="M 56.40625 29 
L 36.5 29 
L 36.5 22.828125 
L 48.796875 22.828125 
L 48.796875 7.359375 
C 44.90625 6.265625 40.90625 5.46875 36.90625 5.46875 
C 22.90625 5.46875 14.59375 20.328125 14.59375 34.375 
C 14.59375 48.359375 23.296875 63 36.90625 63 
C 44.59375 63 48.90625 60.640625 54.203125 56.671875 
L 55.5 64.59375 
C 48.90625 67.984375 44.796875 69.375 37.296875 69.375 
C 17.90625 69.375 6.203125 51.9375 6.203125 34.09375 
C 6.203125 17.03125 18 -1 36.703125 -1 
C 43.703125 -1 50.203125 0.796875 56.40625 3.875 
z
" id="CMSS17-71"/>
      <path d="M 45.59375 31 
L 45.59375 37.078125 
L 17.203125 37.078125 
L 17.203125 62 
L 29.40625 62 
C 30.59375 62 31.796875 62 33 62 
L 49.5 62 
L 49.5 68.359375 
L 8.796875 68.359375 
L 8.796875 -0.5 
L 17.203125 -0.5 
L 17.203125 31 
z
" id="CMSS17-70"/>
      <path d="M 14.796875 69 
L 7.40625 69 
L 7.40625 0 
L 14.796875 0 
z
" id="CMSS17-108"/>
      <path d="M 15.09375 5.203125 
C 18.40625 2.015625 22.90625 -0.078125 27.703125 -0.078125 
C 37 -0.078125 45 9.421875 45 22.0625 
C 45 33.734375 39 44 30.40625 44 
C 25.40625 44 19.40625 42.21875 14.90625 38.625 
L 14.90625 43.203125 
L 7.5 43.203125 
L 7.5 -19 
L 15.09375 -19 
z
M 15.09375 32.8125 
C 15.90625 34 19.296875 37.734375 24.796875 37.734375 
C 31.796875 37.734375 37.40625 30.625 37.40625 22.0625 
C 37.40625 12.296875 30.59375 6 23.90625 6 
C 21.90625 6 19.796875 6.484375 17.796875 8.171875 
C 15.09375 10.53125 15.09375 12 15.09375 13.390625 
z
" id="CMSS17-112"/>
     </defs>
     <g transform="translate(23.2533 198.679832)rotate(-90)scale(0.18 -0.18)">
      <use transform="scale(0.996264)" xlink:href="#CMSS17-71"/>
      <use transform="translate(62.458226 0)scale(0.996264)" xlink:href="#CMSS17-70"/>
      <use transform="translate(115.747785 0)scale(0.996264)" xlink:href="#CMSS17-108"/>
      <use transform="translate(137.928508 0)scale(0.996264)" xlink:href="#CMSS17-111"/>
      <use transform="translate(184.772131 0)scale(0.996264)" xlink:href="#CMSS17-112"/>
      <use transform="translate(232.977074 0)scale(0.996264)" xlink:href="#CMSS17-115"/>
     </g>
    </g>
   </g>
   <g id="line2d_27">
    <path clip-path="url(#p04e624898b)" d="M 65.155651 325.041738 
L 76.890026 325.208989 
L 87.386782 322.046939 
L 96.882253 318.482606 
L 105.550939 315.822721 
L 113.525357 310.140278 
L 134.211852 296.584621 
L 145.946227 290.557821 
L 156.442983 275.72991 
L 165.938454 266.010471 
L 174.60714 250.47496 
L 182.581558 248.461802 
L 203.268053 196.147887 
L 215.002428 176.593981 
L 225.499184 153.671291 
L 234.994655 127.882076 
L 243.663341 113.435058 
L 251.637759 99.369251 
L 272.324254 41.705398 
L 285.432817 102.468684 
L 297.015437 240.106228 
L 307.390622 267.030835 
L 316.786516 278.656642 
L 325.372145 283.980912 
L 341.380455 289.312154 
L 354.489018 290.893717 
L 366.071638 291.966367 
L 376.446824 292.729421 
L 385.842717 293.221224 
L 394.428346 293.344174 
L 410.436656 293.712393 
L 423.545219 293.801437 
L 435.127839 293.840413 
L 445.503025 293.841681 
L 454.898918 293.877806 
L 463.484547 293.916465 
L 479.492857 294.035613 
" style="fill:none;stroke:#1f77b4;stroke-dasharray:5.6,2.4;stroke-dashoffset:0;stroke-width:2;"/>
    <defs>
     <path d="M 0 3 
C 0.795609 3 1.55874 2.683901 2.12132 2.12132 
C 2.683901 1.55874 3 0.795609 3 0 
C 3 -0.795609 2.683901 -1.55874 2.12132 -2.12132 
C 1.55874 -2.683901 0.795609 -3 0 -3 
C -0.795609 -3 -1.55874 -2.683901 -2.12132 -2.12132 
C -2.683901 -1.55874 -3 -0.795609 -3 0 
C -3 0.795609 -2.683901 1.55874 -2.12132 2.12132 
C -1.55874 2.683901 -0.795609 3 0 3 
z
" id="m78d380ae53" style="stroke:#1f77b4;stroke-width:2;"/>
    </defs>
    <g clip-path="url(#p04e624898b)">
     <use style="fill:#ffffff;stroke:#1f77b4;stroke-width:2;" x="65.155651" xlink:href="#m78d380ae53" y="325.041738"/>
     <use style="fill:#ffffff;stroke:#1f77b4;stroke-width:2;" x="76.890026" xlink:href="#m78d380ae53" y="325.208989"/>
     <use style="fill:#ffffff;stroke:#1f77b4;stroke-width:2;" x="87.386782" xlink:href="#m78d380ae53" y="322.046939"/>
     <use style="fill:#ffffff;stroke:#1f77b4;stroke-width:2;" x="96.882253" xlink:href="#m78d380ae53" y="318.482606"/>
     <use style="fill:#ffffff;stroke:#1f77b4;stroke-width:2;" x="105.550939" xlink:href="#m78d380ae53" y="315.822721"/>
     <use style="fill:#ffffff;stroke:#1f77b4;stroke-width:2;" x="113.525357" xlink:href="#m78d380ae53" y="310.140278"/>
     <use style="fill:#ffffff;stroke:#1f77b4;stroke-width:2;" x="134.211852" xlink:href="#m78d380ae53" y="296.584621"/>
     <use style="fill:#ffffff;stroke:#1f77b4;stroke-width:2;" x="145.946227" xlink:href="#m78d380ae53" y="290.557821"/>
     <use style="fill:#ffffff;stroke:#1f77b4;stroke-width:2;" x="156.442983" xlink:href="#m78d380ae53" y="275.72991"/>
     <use style="fill:#ffffff;stroke:#1f77b4;stroke-width:2;" x="165.938454" xlink:href="#m78d380ae53" y="266.010471"/>
     <use style="fill:#ffffff;stroke:#1f77b4;stroke-width:2;" x="174.60714" xlink:href="#m78d380ae53" y="250.47496"/>
     <use style="fill:#ffffff;stroke:#1f77b4;stroke-width:2;" x="182.581558" xlink:href="#m78d380ae53" y="248.461802"/>
     <use style="fill:#ffffff;stroke:#1f77b4;stroke-width:2;" x="203.268053" xlink:href="#m78d380ae53" y="196.147887"/>
     <use style="fill:#ffffff;stroke:#1f77b4;stroke-width:2;" x="215.002428" xlink:href="#m78d380ae53" y="176.593981"/>
     <use style="fill:#ffffff;stroke:#1f77b4;stroke-width:2;" x="225.499184" xlink:href="#m78d380ae53" y="153.671291"/>
     <use style="fill:#ffffff;stroke:#1f77b4;stroke-width:2;" x="234.994655" xlink:href="#m78d380ae53" y="127.882076"/>
     <use style="fill:#ffffff;stroke:#1f77b4;stroke-width:2;" x="243.663341" xlink:href="#m78d380ae53" y="113.435058"/>
     <use style="fill:#ffffff;stroke:#1f77b4;stroke-width:2;" x="251.637759" xlink:href="#m78d380ae53" y="99.369251"/>
     <use style="fill:#ffffff;stroke:#1f77b4;stroke-width:2;" x="272.324254" xlink:href="#m78d380ae53" y="41.705398"/>
     <use style="fill:#ffffff;stroke:#1f77b4;stroke-width:2;" x="285.432817" xlink:href="#m78d380ae53" y="102.468684"/>
     <use style="fill:#ffffff;stroke:#1f77b4;stroke-width:2;" x="297.015437" xlink:href="#m78d380ae53" y="240.106228"/>
     <use style="fill:#ffffff;stroke:#1f77b4;stroke-width:2;" x="307.390622" xlink:href="#m78d380ae53" y="267.030835"/>
     <use style="fill:#ffffff;stroke:#1f77b4;stroke-width:2;" x="316.786516" xlink:href="#m78d380ae53" y="278.656642"/>
     <use style="fill:#ffffff;stroke:#1f77b4;stroke-width:2;" x="325.372145" xlink:href="#m78d380ae53" y="283.980912"/>
     <use style="fill:#ffffff;stroke:#1f77b4;stroke-width:2;" x="341.380455" xlink:href="#m78d380ae53" y="289.312154"/>
     <use style="fill:#ffffff;stroke:#1f77b4;stroke-width:2;" x="354.489018" xlink:href="#m78d380ae53" y="290.893717"/>
     <use style="fill:#ffffff;stroke:#1f77b4;stroke-width:2;" x="366.071638" xlink:href="#m78d380ae53" y="291.966367"/>
     <use style="fill:#ffffff;stroke:#1f77b4;stroke-width:2;" x="376.446824" xlink:href="#m78d380ae53" y="292.729421"/>
     <use style="fill:#ffffff;stroke:#1f77b4;stroke-width:2;" x="385.842717" xlink:href="#m78d380ae53" y="293.221224"/>
     <use style="fill:#ffffff;stroke:#1f77b4;stroke-width:2;" x="394.428346" xlink:href="#m78d380ae53" y="293.344174"/>
     <use style="fill:#ffffff;stroke:#1f77b4;stroke-width:2;" x="410.436656" xlink:href="#m78d380ae53" y="293.712393"/>
     <use style="fill:#ffffff;stroke:#1f77b4;stroke-width:2;" x="423.545219" xlink:href="#m78d380ae53" y="293.801437"/>
     <use style="fill:#ffffff;stroke:#1f77b4;stroke-width:2;" x="435.127839" xlink:href="#m78d380ae53" y="293.840413"/>
     <use style="fill:#ffffff;stroke:#1f77b4;stroke-width:2;" x="445.503025" xlink:href="#m78d380ae53" y="293.841681"/>
     <use style="fill:#ffffff;stroke:#1f77b4;stroke-width:2;" x="454.898918" xlink:href="#m78d380ae53" y="293.877806"/>
     <use style="fill:#ffffff;stroke:#1f77b4;stroke-width:2;" x="463.484547" xlink:href="#m78d380ae53" y="293.916465"/>
     <use style="fill:#ffffff;stroke:#1f77b4;stroke-width:2;" x="479.492857" xlink:href="#m78d380ae53" y="294.035613"/>
    </g>
   </g>
   <g id="line2d_28">
    <path clip-path="url(#p04e624898b)" d="M 65.155651 327.971164 
L 76.890026 326.749041 
L 87.386782 324.643258 
L 96.882253 322.330359 
L 105.550939 320.58107 
L 113.525357 316.190052 
L 134.211852 301.606584 
L 145.946227 299.220772 
L 156.442983 289.679738 
L 165.938454 280.523084 
L 174.60714 276.176715 
L 182.581558 265.775027 
L 203.268053 244.302394 
L 215.002428 226.300582 
L 225.499184 226.906462 
L 234.994655 222.826275 
L 243.663341 209.501974 
L 251.637759 202.054271 
L 272.324254 168.025461 
L 285.432817 188.100006 
L 297.015437 238.090851 
L 307.390622 268.771474 
L 316.786516 278.852793 
L 325.372145 283.802824 
L 341.380455 288.8438 
L 354.489018 290.586341 
L 366.071638 291.708424 
L 376.446824 292.530419 
L 385.842717 292.802938 
L 394.428346 293.031094 
L 410.436656 293.486772 
L 423.545219 293.56219 
L 435.127839 293.539691 
L 445.503025 293.514974 
L 454.898918 293.536522 
L 463.484547 293.481068 
L 479.492857 293.554268 
" style="fill:none;stroke:#ff7f0e;stroke-dasharray:5.6,2.4;stroke-dashoffset:0;stroke-width:2;"/>
    <defs>
     <path d="M 0 3 
C 0.795609 3 1.55874 2.683901 2.12132 2.12132 
C 2.683901 1.55874 3 0.795609 3 0 
C 3 -0.795609 2.683901 -1.55874 2.12132 -2.12132 
C 1.55874 -2.683901 0.795609 -3 0 -3 
C -0.795609 -3 -1.55874 -2.683901 -2.12132 -2.12132 
C -2.683901 -1.55874 -3 -0.795609 -3 0 
C -3 0.795609 -2.683901 1.55874 -2.12132 2.12132 
C -1.55874 2.683901 -0.795609 3 0 3 
z
" id="me7bd28b01c" style="stroke:#ff7f0e;stroke-width:2;"/>
    </defs>
    <g clip-path="url(#p04e624898b)">
     <use style="fill:#ffffff;stroke:#ff7f0e;stroke-width:2;" x="65.155651" xlink:href="#me7bd28b01c" y="327.971164"/>
     <use style="fill:#ffffff;stroke:#ff7f0e;stroke-width:2;" x="76.890026" xlink:href="#me7bd28b01c" y="326.749041"/>
     <use style="fill:#ffffff;stroke:#ff7f0e;stroke-width:2;" x="87.386782" xlink:href="#me7bd28b01c" y="324.643258"/>
     <use style="fill:#ffffff;stroke:#ff7f0e;stroke-width:2;" x="96.882253" xlink:href="#me7bd28b01c" y="322.330359"/>
     <use style="fill:#ffffff;stroke:#ff7f0e;stroke-width:2;" x="105.550939" xlink:href="#me7bd28b01c" y="320.58107"/>
     <use style="fill:#ffffff;stroke:#ff7f0e;stroke-width:2;" x="113.525357" xlink:href="#me7bd28b01c" y="316.190052"/>
     <use style="fill:#ffffff;stroke:#ff7f0e;stroke-width:2;" x="134.211852" xlink:href="#me7bd28b01c" y="301.606584"/>
     <use style="fill:#ffffff;stroke:#ff7f0e;stroke-width:2;" x="145.946227" xlink:href="#me7bd28b01c" y="299.220772"/>
     <use style="fill:#ffffff;stroke:#ff7f0e;stroke-width:2;" x="156.442983" xlink:href="#me7bd28b01c" y="289.679738"/>
     <use style="fill:#ffffff;stroke:#ff7f0e;stroke-width:2;" x="165.938454" xlink:href="#me7bd28b01c" y="280.523084"/>
     <use style="fill:#ffffff;stroke:#ff7f0e;stroke-width:2;" x="174.60714" xlink:href="#me7bd28b01c" y="276.176715"/>
     <use style="fill:#ffffff;stroke:#ff7f0e;stroke-width:2;" x="182.581558" xlink:href="#me7bd28b01c" y="265.775027"/>
     <use style="fill:#ffffff;stroke:#ff7f0e;stroke-width:2;" x="203.268053" xlink:href="#me7bd28b01c" y="244.302394"/>
     <use style="fill:#ffffff;stroke:#ff7f0e;stroke-width:2;" x="215.002428" xlink:href="#me7bd28b01c" y="226.300582"/>
     <use style="fill:#ffffff;stroke:#ff7f0e;stroke-width:2;" x="225.499184" xlink:href="#me7bd28b01c" y="226.906462"/>
     <use style="fill:#ffffff;stroke:#ff7f0e;stroke-width:2;" x="234.994655" xlink:href="#me7bd28b01c" y="222.826275"/>
     <use style="fill:#ffffff;stroke:#ff7f0e;stroke-width:2;" x="243.663341" xlink:href="#me7bd28b01c" y="209.501974"/>
     <use style="fill:#ffffff;stroke:#ff7f0e;stroke-width:2;" x="251.637759" xlink:href="#me7bd28b01c" y="202.054271"/>
     <use style="fill:#ffffff;stroke:#ff7f0e;stroke-width:2;" x="272.324254" xlink:href="#me7bd28b01c" y="168.025461"/>
     <use style="fill:#ffffff;stroke:#ff7f0e;stroke-width:2;" x="285.432817" xlink:href="#me7bd28b01c" y="188.100006"/>
     <use style="fill:#ffffff;stroke:#ff7f0e;stroke-width:2;" x="297.015437" xlink:href="#me7bd28b01c" y="238.090851"/>
     <use style="fill:#ffffff;stroke:#ff7f0e;stroke-width:2;" x="307.390622" xlink:href="#me7bd28b01c" y="268.771474"/>
     <use style="fill:#ffffff;stroke:#ff7f0e;stroke-width:2;" x="316.786516" xlink:href="#me7bd28b01c" y="278.852793"/>
     <use style="fill:#ffffff;stroke:#ff7f0e;stroke-width:2;" x="325.372145" xlink:href="#me7bd28b01c" y="283.802824"/>
     <use style="fill:#ffffff;stroke:#ff7f0e;stroke-width:2;" x="341.380455" xlink:href="#me7bd28b01c" y="288.8438"/>
     <use style="fill:#ffffff;stroke:#ff7f0e;stroke-width:2;" x="354.489018" xlink:href="#me7bd28b01c" y="290.586341"/>
     <use style="fill:#ffffff;stroke:#ff7f0e;stroke-width:2;" x="366.071638" xlink:href="#me7bd28b01c" y="291.708424"/>
     <use style="fill:#ffffff;stroke:#ff7f0e;stroke-width:2;" x="376.446824" xlink:href="#me7bd28b01c" y="292.530419"/>
     <use style="fill:#ffffff;stroke:#ff7f0e;stroke-width:2;" x="385.842717" xlink:href="#me7bd28b01c" y="292.802938"/>
     <use style="fill:#ffffff;stroke:#ff7f0e;stroke-width:2;" x="394.428346" xlink:href="#me7bd28b01c" y="293.031094"/>
     <use style="fill:#ffffff;stroke:#ff7f0e;stroke-width:2;" x="410.436656" xlink:href="#me7bd28b01c" y="293.486772"/>
     <use style="fill:#ffffff;stroke:#ff7f0e;stroke-width:2;" x="423.545219" xlink:href="#me7bd28b01c" y="293.56219"/>
     <use style="fill:#ffffff;stroke:#ff7f0e;stroke-width:2;" x="435.127839" xlink:href="#me7bd28b01c" y="293.539691"/>
     <use style="fill:#ffffff;stroke:#ff7f0e;stroke-width:2;" x="445.503025" xlink:href="#me7bd28b01c" y="293.514974"/>
     <use style="fill:#ffffff;stroke:#ff7f0e;stroke-width:2;" x="454.898918" xlink:href="#me7bd28b01c" y="293.536522"/>
     <use style="fill:#ffffff;stroke:#ff7f0e;stroke-width:2;" x="463.484547" xlink:href="#me7bd28b01c" y="293.481068"/>
     <use style="fill:#ffffff;stroke:#ff7f0e;stroke-width:2;" x="479.492857" xlink:href="#me7bd28b01c" y="293.554268"/>
    </g>
   </g>
   <g id="line2d_29">
    <path clip-path="url(#p04e624898b)" d="M 65.155651 332.174206 
L 76.890026 331.396702 
L 87.386782 330.115068 
L 96.882253 328.192158 
L 105.550939 327.139821 
L 113.525357 325.446271 
L 134.211852 320.841072 
L 145.946227 318.830417 
L 156.442983 314.788827 
L 165.938454 313.176462 
L 174.60714 310.394704 
L 182.581558 305.550765 
L 203.268053 299.470159 
L 215.002428 296.211333 
L 225.499184 292.964232 
L 234.994655 295.860226 
L 243.663341 290.460538 
L 251.637759 287.75499 
L 272.324254 285.335588 
L 285.432817 285.981712 
L 297.015437 285.278232 
L 307.390622 285.072258 
L 316.786516 286.001993 
L 325.372145 287.280299 
L 341.380455 289.766564 
L 354.489018 291.377598 
L 366.071638 292.266772 
L 376.446824 292.833993 
L 385.842717 293.334668 
L 394.428346 293.432585 
L 410.436656 294.136382 
L 423.545219 293.92407 
L 435.127839 293.968751 
L 445.503025 293.911395 
L 454.898918 293.935478 
L 463.484547 293.98206 
L 479.492857 293.77767 
" style="fill:none;stroke:#2ca02c;stroke-dasharray:5.6,2.4;stroke-dashoffset:0;stroke-width:2;"/>
    <defs>
     <path d="M 0 3 
C 0.795609 3 1.55874 2.683901 2.12132 2.12132 
C 2.683901 1.55874 3 0.795609 3 0 
C 3 -0.795609 2.683901 -1.55874 2.12132 -2.12132 
C 1.55874 -2.683901 0.795609 -3 0 -3 
C -0.795609 -3 -1.55874 -2.683901 -2.12132 -2.12132 
C -2.683901 -1.55874 -3 -0.795609 -3 0 
C -3 0.795609 -2.683901 1.55874 -2.12132 2.12132 
C -1.55874 2.683901 -0.795609 3 0 3 
z
" id="mf04a6675c7" style="stroke:#2ca02c;stroke-width:2;"/>
    </defs>
    <g clip-path="url(#p04e624898b)">
     <use style="fill:#ffffff;stroke:#2ca02c;stroke-width:2;" x="65.155651" xlink:href="#mf04a6675c7" y="332.174206"/>
     <use style="fill:#ffffff;stroke:#2ca02c;stroke-width:2;" x="76.890026" xlink:href="#mf04a6675c7" y="331.396702"/>
     <use style="fill:#ffffff;stroke:#2ca02c;stroke-width:2;" x="87.386782" xlink:href="#mf04a6675c7" y="330.115068"/>
     <use style="fill:#ffffff;stroke:#2ca02c;stroke-width:2;" x="96.882253" xlink:href="#mf04a6675c7" y="328.192158"/>
     <use style="fill:#ffffff;stroke:#2ca02c;stroke-width:2;" x="105.550939" xlink:href="#mf04a6675c7" y="327.139821"/>
     <use style="fill:#ffffff;stroke:#2ca02c;stroke-width:2;" x="113.525357" xlink:href="#mf04a6675c7" y="325.446271"/>
     <use style="fill:#ffffff;stroke:#2ca02c;stroke-width:2;" x="134.211852" xlink:href="#mf04a6675c7" y="320.841072"/>
     <use style="fill:#ffffff;stroke:#2ca02c;stroke-width:2;" x="145.946227" xlink:href="#mf04a6675c7" y="318.830417"/>
     <use style="fill:#ffffff;stroke:#2ca02c;stroke-width:2;" x="156.442983" xlink:href="#mf04a6675c7" y="314.788827"/>
     <use style="fill:#ffffff;stroke:#2ca02c;stroke-width:2;" x="165.938454" xlink:href="#mf04a6675c7" y="313.176462"/>
     <use style="fill:#ffffff;stroke:#2ca02c;stroke-width:2;" x="174.60714" xlink:href="#mf04a6675c7" y="310.394704"/>
     <use style="fill:#ffffff;stroke:#2ca02c;stroke-width:2;" x="182.581558" xlink:href="#mf04a6675c7" y="305.550765"/>
     <use style="fill:#ffffff;stroke:#2ca02c;stroke-width:2;" x="203.268053" xlink:href="#mf04a6675c7" y="299.470159"/>
     <use style="fill:#ffffff;stroke:#2ca02c;stroke-width:2;" x="215.002428" xlink:href="#mf04a6675c7" y="296.211333"/>
     <use style="fill:#ffffff;stroke:#2ca02c;stroke-width:2;" x="225.499184" xlink:href="#mf04a6675c7" y="292.964232"/>
     <use style="fill:#ffffff;stroke:#2ca02c;stroke-width:2;" x="234.994655" xlink:href="#mf04a6675c7" y="295.860226"/>
     <use style="fill:#ffffff;stroke:#2ca02c;stroke-width:2;" x="243.663341" xlink:href="#mf04a6675c7" y="290.460538"/>
     <use style="fill:#ffffff;stroke:#2ca02c;stroke-width:2;" x="251.637759" xlink:href="#mf04a6675c7" y="287.75499"/>
     <use style="fill:#ffffff;stroke:#2ca02c;stroke-width:2;" x="272.324254" xlink:href="#mf04a6675c7" y="285.335588"/>
     <use style="fill:#ffffff;stroke:#2ca02c;stroke-width:2;" x="285.432817" xlink:href="#mf04a6675c7" y="285.981712"/>
     <use style="fill:#ffffff;stroke:#2ca02c;stroke-width:2;" x="297.015437" xlink:href="#mf04a6675c7" y="285.278232"/>
     <use style="fill:#ffffff;stroke:#2ca02c;stroke-width:2;" x="307.390622" xlink:href="#mf04a6675c7" y="285.072258"/>
     <use style="fill:#ffffff;stroke:#2ca02c;stroke-width:2;" x="316.786516" xlink:href="#mf04a6675c7" y="286.001993"/>
     <use style="fill:#ffffff;stroke:#2ca02c;stroke-width:2;" x="325.372145" xlink:href="#mf04a6675c7" y="287.280299"/>
     <use style="fill:#ffffff;stroke:#2ca02c;stroke-width:2;" x="341.380455" xlink:href="#mf04a6675c7" y="289.766564"/>
     <use style="fill:#ffffff;stroke:#2ca02c;stroke-width:2;" x="354.489018" xlink:href="#mf04a6675c7" y="291.377598"/>
     <use style="fill:#ffffff;stroke:#2ca02c;stroke-width:2;" x="366.071638" xlink:href="#mf04a6675c7" y="292.266772"/>
     <use style="fill:#ffffff;stroke:#2ca02c;stroke-width:2;" x="376.446824" xlink:href="#mf04a6675c7" y="292.833993"/>
     <use style="fill:#ffffff;stroke:#2ca02c;stroke-width:2;" x="385.842717" xlink:href="#mf04a6675c7" y="293.334668"/>
     <use style="fill:#ffffff;stroke:#2ca02c;stroke-width:2;" x="394.428346" xlink:href="#mf04a6675c7" y="293.432585"/>
     <use style="fill:#ffffff;stroke:#2ca02c;stroke-width:2;" x="410.436656" xlink:href="#mf04a6675c7" y="294.136382"/>
     <use style="fill:#ffffff;stroke:#2ca02c;stroke-width:2;" x="423.545219" xlink:href="#mf04a6675c7" y="293.92407"/>
     <use style="fill:#ffffff;stroke:#2ca02c;stroke-width:2;" x="435.127839" xlink:href="#mf04a6675c7" y="293.968751"/>
     <use style="fill:#ffffff;stroke:#2ca02c;stroke-width:2;" x="445.503025" xlink:href="#mf04a6675c7" y="293.911395"/>
     <use style="fill:#ffffff;stroke:#2ca02c;stroke-width:2;" x="454.898918" xlink:href="#mf04a6675c7" y="293.935478"/>
     <use style="fill:#ffffff;stroke:#2ca02c;stroke-width:2;" x="463.484547" xlink:href="#mf04a6675c7" y="293.98206"/>
     <use style="fill:#ffffff;stroke:#2ca02c;stroke-width:2;" x="479.492857" xlink:href="#mf04a6675c7" y="293.77767"/>
    </g>
   </g>
   <g id="line2d_30">
    <path clip-path="url(#p04e624898b)" d="M 65.155651 231.30068 
L 76.890026 186.604318 
L 87.386782 268.101266 
L 96.882253 245.375677 
L 105.550939 247.778602 
L 113.525357 246.254394 
L 134.211852 252.39242 
L 145.946227 261.681848 
L 156.442983 261.85962 
L 165.938454 270.298534 
L 174.60714 268.964456 
L 182.581558 272.113006 
L 203.268053 273.681261 
L 215.002428 272.263209 
L 225.499184 275.15952 
L 234.994655 272.956866 
L 243.663341 272.773074 
L 251.637759 273.386243 
L 272.324254 275.954263 
L 285.432817 282.692466 
L 297.015437 284.688195 
L 307.390622 287.327515 
L 316.786516 291.330699 
L 325.372145 294.6998 
L 341.380455 297.795114 
L 354.489018 298.829104 
L 366.071638 299.60927 
L 376.446824 300.219587 
L 385.842717 300.595727 
L 394.428346 300.775083 
L 410.436656 300.283914 
L 423.545219 301.718127 
L 435.127839 301.425961 
L 445.503025 301.46367 
L 454.898918 301.493774 
L 463.484547 301.274491 
L 479.492857 301.512787 
" style="fill:none;stroke:#d62728;stroke-linecap:square;stroke-width:2;"/>
    <defs>
     <path d="M 0 3 
C 0.795609 3 1.55874 2.683901 2.12132 2.12132 
C 2.683901 1.55874 3 0.795609 3 0 
C 3 -0.795609 2.683901 -1.55874 2.12132 -2.12132 
C 1.55874 -2.683901 0.795609 -3 0 -3 
C -0.795609 -3 -1.55874 -2.683901 -2.12132 -2.12132 
C -2.683901 -1.55874 -3 -0.795609 -3 0 
C -3 0.795609 -2.683901 1.55874 -2.12132 2.12132 
C -1.55874 2.683901 -0.795609 3 0 3 
z
" id="m809bb2afc0" style="stroke:#d62728;stroke-width:2;"/>
    </defs>
    <g clip-path="url(#p04e624898b)">
     <use style="fill:#ffffff;stroke:#d62728;stroke-width:2;" x="65.155651" xlink:href="#m809bb2afc0" y="231.30068"/>
     <use style="fill:#ffffff;stroke:#d62728;stroke-width:2;" x="76.890026" xlink:href="#m809bb2afc0" y="186.604318"/>
     <use style="fill:#ffffff;stroke:#d62728;stroke-width:2;" x="87.386782" xlink:href="#m809bb2afc0" y="268.101266"/>
     <use style="fill:#ffffff;stroke:#d62728;stroke-width:2;" x="96.882253" xlink:href="#m809bb2afc0" y="245.375677"/>
     <use style="fill:#ffffff;stroke:#d62728;stroke-width:2;" x="105.550939" xlink:href="#m809bb2afc0" y="247.778602"/>
     <use style="fill:#ffffff;stroke:#d62728;stroke-width:2;" x="113.525357" xlink:href="#m809bb2afc0" y="246.254394"/>
     <use style="fill:#ffffff;stroke:#d62728;stroke-width:2;" x="134.211852" xlink:href="#m809bb2afc0" y="252.39242"/>
     <use style="fill:#ffffff;stroke:#d62728;stroke-width:2;" x="145.946227" xlink:href="#m809bb2afc0" y="261.681848"/>
     <use style="fill:#ffffff;stroke:#d62728;stroke-width:2;" x="156.442983" xlink:href="#m809bb2afc0" y="261.85962"/>
     <use style="fill:#ffffff;stroke:#d62728;stroke-width:2;" x="165.938454" xlink:href="#m809bb2afc0" y="270.298534"/>
     <use style="fill:#ffffff;stroke:#d62728;stroke-width:2;" x="174.60714" xlink:href="#m809bb2afc0" y="268.964456"/>
     <use style="fill:#ffffff;stroke:#d62728;stroke-width:2;" x="182.581558" xlink:href="#m809bb2afc0" y="272.113006"/>
     <use style="fill:#ffffff;stroke:#d62728;stroke-width:2;" x="203.268053" xlink:href="#m809bb2afc0" y="273.681261"/>
     <use style="fill:#ffffff;stroke:#d62728;stroke-width:2;" x="215.002428" xlink:href="#m809bb2afc0" y="272.263209"/>
     <use style="fill:#ffffff;stroke:#d62728;stroke-width:2;" x="225.499184" xlink:href="#m809bb2afc0" y="275.15952"/>
     <use style="fill:#ffffff;stroke:#d62728;stroke-width:2;" x="234.994655" xlink:href="#m809bb2afc0" y="272.956866"/>
     <use style="fill:#ffffff;stroke:#d62728;stroke-width:2;" x="243.663341" xlink:href="#m809bb2afc0" y="272.773074"/>
     <use style="fill:#ffffff;stroke:#d62728;stroke-width:2;" x="251.637759" xlink:href="#m809bb2afc0" y="273.386243"/>
     <use style="fill:#ffffff;stroke:#d62728;stroke-width:2;" x="272.324254" xlink:href="#m809bb2afc0" y="275.954263"/>
     <use style="fill:#ffffff;stroke:#d62728;stroke-width:2;" x="285.432817" xlink:href="#m809bb2afc0" y="282.692466"/>
     <use style="fill:#ffffff;stroke:#d62728;stroke-width:2;" x="297.015437" xlink:href="#m809bb2afc0" y="284.688195"/>
     <use style="fill:#ffffff;stroke:#d62728;stroke-width:2;" x="307.390622" xlink:href="#m809bb2afc0" y="287.327515"/>
     <use style="fill:#ffffff;stroke:#d62728;stroke-width:2;" x="316.786516" xlink:href="#m809bb2afc0" y="291.330699"/>
     <use style="fill:#ffffff;stroke:#d62728;stroke-width:2;" x="325.372145" xlink:href="#m809bb2afc0" y="294.6998"/>
     <use style="fill:#ffffff;stroke:#d62728;stroke-width:2;" x="341.380455" xlink:href="#m809bb2afc0" y="297.795114"/>
     <use style="fill:#ffffff;stroke:#d62728;stroke-width:2;" x="354.489018" xlink:href="#m809bb2afc0" y="298.829104"/>
     <use style="fill:#ffffff;stroke:#d62728;stroke-width:2;" x="366.071638" xlink:href="#m809bb2afc0" y="299.60927"/>
     <use style="fill:#ffffff;stroke:#d62728;stroke-width:2;" x="376.446824" xlink:href="#m809bb2afc0" y="300.219587"/>
     <use style="fill:#ffffff;stroke:#d62728;stroke-width:2;" x="385.842717" xlink:href="#m809bb2afc0" y="300.595727"/>
     <use style="fill:#ffffff;stroke:#d62728;stroke-width:2;" x="394.428346" xlink:href="#m809bb2afc0" y="300.775083"/>
     <use style="fill:#ffffff;stroke:#d62728;stroke-width:2;" x="410.436656" xlink:href="#m809bb2afc0" y="300.283914"/>
     <use style="fill:#ffffff;stroke:#d62728;stroke-width:2;" x="423.545219" xlink:href="#m809bb2afc0" y="301.718127"/>
     <use style="fill:#ffffff;stroke:#d62728;stroke-width:2;" x="435.127839" xlink:href="#m809bb2afc0" y="301.425961"/>
     <use style="fill:#ffffff;stroke:#d62728;stroke-width:2;" x="445.503025" xlink:href="#m809bb2afc0" y="301.46367"/>
     <use style="fill:#ffffff;stroke:#d62728;stroke-width:2;" x="454.898918" xlink:href="#m809bb2afc0" y="301.493774"/>
     <use style="fill:#ffffff;stroke:#d62728;stroke-width:2;" x="463.484547" xlink:href="#m809bb2afc0" y="301.274491"/>
     <use style="fill:#ffffff;stroke:#d62728;stroke-width:2;" x="479.492857" xlink:href="#m809bb2afc0" y="301.512787"/>
    </g>
   </g>
   <g id="line2d_31">
    <path clip-path="url(#p04e624898b)" d="M 65.155651 284.030029 
L 76.890026 286.707691 
L 87.386782 285.265873 
L 96.882253 291.067369 
L 105.550939 285.913266 
L 113.525357 291.506886 
L 134.211852 296.584621 
L 145.946227 298.009644 
L 156.442983 300.937961 
L 165.938454 301.385083 
L 174.60714 302.862075 
L 182.581558 303.239166 
L 203.268053 305.072272 
L 215.002428 305.456683 
L 225.499184 305.88739 
L 234.994655 304.565322 
L 243.663341 304.811223 
L 251.637759 304.828335 
L 272.324254 306.678679 
L 285.432817 307.093542 
L 297.015437 308.522812 
L 307.390622 309.542827 
L 316.786516 309.943335 
L 325.372145 309.209054 
L 341.380455 308.780945 
L 354.489018 309.52486 
L 366.071638 309.695343 
L 376.446824 309.819149 
L 385.842717 309.946377 
L 394.428346 309.870357 
L 410.436656 309.972901 
L 423.545219 310.393024 
L 435.127839 310.133465 
L 445.503025 310.367357 
L 454.898918 310.442331 
L 463.484547 310.426202 
L 479.492857 310.400724 
" style="fill:none;stroke:#9467bd;stroke-linecap:square;stroke-width:2;"/>
    <defs>
     <path d="M 0 3 
C 0.795609 3 1.55874 2.683901 2.12132 2.12132 
C 2.683901 1.55874 3 0.795609 3 0 
C 3 -0.795609 2.683901 -1.55874 2.12132 -2.12132 
C 1.55874 -2.683901 0.795609 -3 0 -3 
C -0.795609 -3 -1.55874 -2.683901 -2.12132 -2.12132 
C -2.683901 -1.55874 -3 -0.795609 -3 0 
C -3 0.795609 -2.683901 1.55874 -2.12132 2.12132 
C -1.55874 2.683901 -0.795609 3 0 3 
z
" id="ma06b16daf8" style="stroke:#9467bd;stroke-width:2;"/>
    </defs>
    <g clip-path="url(#p04e624898b)">
     <use style="fill:#ffffff;stroke:#9467bd;stroke-width:2;" x="65.155651" xlink:href="#ma06b16daf8" y="284.030029"/>
     <use style="fill:#ffffff;stroke:#9467bd;stroke-width:2;" x="76.890026" xlink:href="#ma06b16daf8" y="286.707691"/>
     <use style="fill:#ffffff;stroke:#9467bd;stroke-width:2;" x="87.386782" xlink:href="#ma06b16daf8" y="285.265873"/>
     <use style="fill:#ffffff;stroke:#9467bd;stroke-width:2;" x="96.882253" xlink:href="#ma06b16daf8" y="291.067369"/>
     <use style="fill:#ffffff;stroke:#9467bd;stroke-width:2;" x="105.550939" xlink:href="#ma06b16daf8" y="285.913266"/>
     <use style="fill:#ffffff;stroke:#9467bd;stroke-width:2;" x="113.525357" xlink:href="#ma06b16daf8" y="291.506886"/>
     <use style="fill:#ffffff;stroke:#9467bd;stroke-width:2;" x="134.211852" xlink:href="#ma06b16daf8" y="296.584621"/>
     <use style="fill:#ffffff;stroke:#9467bd;stroke-width:2;" x="145.946227" xlink:href="#ma06b16daf8" y="298.009644"/>
     <use style="fill:#ffffff;stroke:#9467bd;stroke-width:2;" x="156.442983" xlink:href="#ma06b16daf8" y="300.937961"/>
     <use style="fill:#ffffff;stroke:#9467bd;stroke-width:2;" x="165.938454" xlink:href="#ma06b16daf8" y="301.385083"/>
     <use style="fill:#ffffff;stroke:#9467bd;stroke-width:2;" x="174.60714" xlink:href="#ma06b16daf8" y="302.862075"/>
     <use style="fill:#ffffff;stroke:#9467bd;stroke-width:2;" x="182.581558" xlink:href="#ma06b16daf8" y="303.239166"/>
     <use style="fill:#ffffff;stroke:#9467bd;stroke-width:2;" x="203.268053" xlink:href="#ma06b16daf8" y="305.072272"/>
     <use style="fill:#ffffff;stroke:#9467bd;stroke-width:2;" x="215.002428" xlink:href="#ma06b16daf8" y="305.456683"/>
     <use style="fill:#ffffff;stroke:#9467bd;stroke-width:2;" x="225.499184" xlink:href="#ma06b16daf8" y="305.88739"/>
     <use style="fill:#ffffff;stroke:#9467bd;stroke-width:2;" x="234.994655" xlink:href="#ma06b16daf8" y="304.565322"/>
     <use style="fill:#ffffff;stroke:#9467bd;stroke-width:2;" x="243.663341" xlink:href="#ma06b16daf8" y="304.811223"/>
     <use style="fill:#ffffff;stroke:#9467bd;stroke-width:2;" x="251.637759" xlink:href="#ma06b16daf8" y="304.828335"/>
     <use style="fill:#ffffff;stroke:#9467bd;stroke-width:2;" x="272.324254" xlink:href="#ma06b16daf8" y="306.678679"/>
     <use style="fill:#ffffff;stroke:#9467bd;stroke-width:2;" x="285.432817" xlink:href="#ma06b16daf8" y="307.093542"/>
     <use style="fill:#ffffff;stroke:#9467bd;stroke-width:2;" x="297.015437" xlink:href="#ma06b16daf8" y="308.522812"/>
     <use style="fill:#ffffff;stroke:#9467bd;stroke-width:2;" x="307.390622" xlink:href="#ma06b16daf8" y="309.542827"/>
     <use style="fill:#ffffff;stroke:#9467bd;stroke-width:2;" x="316.786516" xlink:href="#ma06b16daf8" y="309.943335"/>
     <use style="fill:#ffffff;stroke:#9467bd;stroke-width:2;" x="325.372145" xlink:href="#ma06b16daf8" y="309.209054"/>
     <use style="fill:#ffffff;stroke:#9467bd;stroke-width:2;" x="341.380455" xlink:href="#ma06b16daf8" y="308.780945"/>
     <use style="fill:#ffffff;stroke:#9467bd;stroke-width:2;" x="354.489018" xlink:href="#ma06b16daf8" y="309.52486"/>
     <use style="fill:#ffffff;stroke:#9467bd;stroke-width:2;" x="366.071638" xlink:href="#ma06b16daf8" y="309.695343"/>
     <use style="fill:#ffffff;stroke:#9467bd;stroke-width:2;" x="376.446824" xlink:href="#ma06b16daf8" y="309.819149"/>
     <use style="fill:#ffffff;stroke:#9467bd;stroke-width:2;" x="385.842717" xlink:href="#ma06b16daf8" y="309.946377"/>
     <use style="fill:#ffffff;stroke:#9467bd;stroke-width:2;" x="394.428346" xlink:href="#ma06b16daf8" y="309.870357"/>
     <use style="fill:#ffffff;stroke:#9467bd;stroke-width:2;" x="410.436656" xlink:href="#ma06b16daf8" y="309.972901"/>
     <use style="fill:#ffffff;stroke:#9467bd;stroke-width:2;" x="423.545219" xlink:href="#ma06b16daf8" y="310.393024"/>
     <use style="fill:#ffffff;stroke:#9467bd;stroke-width:2;" x="435.127839" xlink:href="#ma06b16daf8" y="310.133465"/>
     <use style="fill:#ffffff;stroke:#9467bd;stroke-width:2;" x="445.503025" xlink:href="#ma06b16daf8" y="310.367357"/>
     <use style="fill:#ffffff;stroke:#9467bd;stroke-width:2;" x="454.898918" xlink:href="#ma06b16daf8" y="310.442331"/>
     <use style="fill:#ffffff;stroke:#9467bd;stroke-width:2;" x="463.484547" xlink:href="#ma06b16daf8" y="310.426202"/>
     <use style="fill:#ffffff;stroke:#9467bd;stroke-width:2;" x="479.492857" xlink:href="#ma06b16daf8" y="310.400724"/>
    </g>
   </g>
   <g id="line2d_32">
    <path clip-path="url(#p04e624898b)" d="M 65.155651 321.693836 
L 76.890026 323.10891 
L 87.386782 323.027787 
L 96.882253 324.29795 
L 105.550939 324.486179 
L 113.525357 324.850816 
L 134.211852 326.470722 
L 145.946227 326.492366 
L 156.442983 327.066494 
L 165.938454 327.140043 
L 174.60714 327.662298 
L 182.581558 328.281171 
L 203.268053 328.75301 
L 215.002428 328.366444 
L 225.499184 328.530716 
L 234.994655 328.606166 
L 243.663341 329.035036 
L 251.637759 328.739003 
L 272.324254 328.912433 
L 285.432817 329.106334 
L 297.015437 329.102975 
L 307.390622 329.218764 
L 316.786516 329.347577 
L 325.372145 329.279004 
L 341.380455 329.387948 
L 354.489018 329.352172 
L 366.071638 329.383607 
L 376.446824 329.415232 
L 385.842717 329.428097 
L 394.428346 329.448568 
L 410.436656 329.555421 
L 423.545219 329.537232 
L 435.127839 329.520374 
L 445.503025 329.524081 
L 454.898918 329.578046 
L 463.484547 329.547911 
L 479.492857 329.58337 
" style="fill:none;stroke:#8c564b;stroke-linecap:square;stroke-width:2;"/>
    <defs>
     <path d="M 0 3 
C 0.795609 3 1.55874 2.683901 2.12132 2.12132 
C 2.683901 1.55874 3 0.795609 3 0 
C 3 -0.795609 2.683901 -1.55874 2.12132 -2.12132 
C 1.55874 -2.683901 0.795609 -3 0 -3 
C -0.795609 -3 -1.55874 -2.683901 -2.12132 -2.12132 
C -2.683901 -1.55874 -3 -0.795609 -3 0 
C -3 0.795609 -2.683901 1.55874 -2.12132 2.12132 
C -1.55874 2.683901 -0.795609 3 0 3 
z
" id="m15ba408ae1" style="stroke:#8c564b;stroke-width:2;"/>
    </defs>
    <g clip-path="url(#p04e624898b)">
     <use style="fill:#ffffff;stroke:#8c564b;stroke-width:2;" x="65.155651" xlink:href="#m15ba408ae1" y="321.693836"/>
     <use style="fill:#ffffff;stroke:#8c564b;stroke-width:2;" x="76.890026" xlink:href="#m15ba408ae1" y="323.10891"/>
     <use style="fill:#ffffff;stroke:#8c564b;stroke-width:2;" x="87.386782" xlink:href="#m15ba408ae1" y="323.027787"/>
     <use style="fill:#ffffff;stroke:#8c564b;stroke-width:2;" x="96.882253" xlink:href="#m15ba408ae1" y="324.29795"/>
     <use style="fill:#ffffff;stroke:#8c564b;stroke-width:2;" x="105.550939" xlink:href="#m15ba408ae1" y="324.486179"/>
     <use style="fill:#ffffff;stroke:#8c564b;stroke-width:2;" x="113.525357" xlink:href="#m15ba408ae1" y="324.850816"/>
     <use style="fill:#ffffff;stroke:#8c564b;stroke-width:2;" x="134.211852" xlink:href="#m15ba408ae1" y="326.470722"/>
     <use style="fill:#ffffff;stroke:#8c564b;stroke-width:2;" x="145.946227" xlink:href="#m15ba408ae1" y="326.492366"/>
     <use style="fill:#ffffff;stroke:#8c564b;stroke-width:2;" x="156.442983" xlink:href="#m15ba408ae1" y="327.066494"/>
     <use style="fill:#ffffff;stroke:#8c564b;stroke-width:2;" x="165.938454" xlink:href="#m15ba408ae1" y="327.140043"/>
     <use style="fill:#ffffff;stroke:#8c564b;stroke-width:2;" x="174.60714" xlink:href="#m15ba408ae1" y="327.662298"/>
     <use style="fill:#ffffff;stroke:#8c564b;stroke-width:2;" x="182.581558" xlink:href="#m15ba408ae1" y="328.281171"/>
     <use style="fill:#ffffff;stroke:#8c564b;stroke-width:2;" x="203.268053" xlink:href="#m15ba408ae1" y="328.75301"/>
     <use style="fill:#ffffff;stroke:#8c564b;stroke-width:2;" x="215.002428" xlink:href="#m15ba408ae1" y="328.366444"/>
     <use style="fill:#ffffff;stroke:#8c564b;stroke-width:2;" x="225.499184" xlink:href="#m15ba408ae1" y="328.530716"/>
     <use style="fill:#ffffff;stroke:#8c564b;stroke-width:2;" x="234.994655" xlink:href="#m15ba408ae1" y="328.606166"/>
     <use style="fill:#ffffff;stroke:#8c564b;stroke-width:2;" x="243.663341" xlink:href="#m15ba408ae1" y="329.035036"/>
     <use style="fill:#ffffff;stroke:#8c564b;stroke-width:2;" x="251.637759" xlink:href="#m15ba408ae1" y="328.739003"/>
     <use style="fill:#ffffff;stroke:#8c564b;stroke-width:2;" x="272.324254" xlink:href="#m15ba408ae1" y="328.912433"/>
     <use style="fill:#ffffff;stroke:#8c564b;stroke-width:2;" x="285.432817" xlink:href="#m15ba408ae1" y="329.106334"/>
     <use style="fill:#ffffff;stroke:#8c564b;stroke-width:2;" x="297.015437" xlink:href="#m15ba408ae1" y="329.102975"/>
     <use style="fill:#ffffff;stroke:#8c564b;stroke-width:2;" x="307.390622" xlink:href="#m15ba408ae1" y="329.218764"/>
     <use style="fill:#ffffff;stroke:#8c564b;stroke-width:2;" x="316.786516" xlink:href="#m15ba408ae1" y="329.347577"/>
     <use style="fill:#ffffff;stroke:#8c564b;stroke-width:2;" x="325.372145" xlink:href="#m15ba408ae1" y="329.279004"/>
     <use style="fill:#ffffff;stroke:#8c564b;stroke-width:2;" x="341.380455" xlink:href="#m15ba408ae1" y="329.387948"/>
     <use style="fill:#ffffff;stroke:#8c564b;stroke-width:2;" x="354.489018" xlink:href="#m15ba408ae1" y="329.352172"/>
     <use style="fill:#ffffff;stroke:#8c564b;stroke-width:2;" x="366.071638" xlink:href="#m15ba408ae1" y="329.383607"/>
     <use style="fill:#ffffff;stroke:#8c564b;stroke-width:2;" x="376.446824" xlink:href="#m15ba408ae1" y="329.415232"/>
     <use style="fill:#ffffff;stroke:#8c564b;stroke-width:2;" x="385.842717" xlink:href="#m15ba408ae1" y="329.428097"/>
     <use style="fill:#ffffff;stroke:#8c564b;stroke-width:2;" x="394.428346" xlink:href="#m15ba408ae1" y="329.448568"/>
     <use style="fill:#ffffff;stroke:#8c564b;stroke-width:2;" x="410.436656" xlink:href="#m15ba408ae1" y="329.555421"/>
     <use style="fill:#ffffff;stroke:#8c564b;stroke-width:2;" x="423.545219" xlink:href="#m15ba408ae1" y="329.537232"/>
     <use style="fill:#ffffff;stroke:#8c564b;stroke-width:2;" x="435.127839" xlink:href="#m15ba408ae1" y="329.520374"/>
     <use style="fill:#ffffff;stroke:#8c564b;stroke-width:2;" x="445.503025" xlink:href="#m15ba408ae1" y="329.524081"/>
     <use style="fill:#ffffff;stroke:#8c564b;stroke-width:2;" x="454.898918" xlink:href="#m15ba408ae1" y="329.578046"/>
     <use style="fill:#ffffff;stroke:#8c564b;stroke-width:2;" x="463.484547" xlink:href="#m15ba408ae1" y="329.547911"/>
     <use style="fill:#ffffff;stroke:#8c564b;stroke-width:2;" x="479.492857" xlink:href="#m15ba408ae1" y="329.58337"/>
    </g>
   </g>
   <g id="patch_3">
    <path d="M 65.155651 336.759378 
L 65.155651 12.2 
" style="fill:none;stroke:#000000;stroke-linecap:square;stroke-linejoin:miter;stroke-width:0.8;"/>
   </g>
   <g id="patch_4">
    <path d="M 479.492857 336.759378 
L 479.492857 12.2 
" style="fill:none;stroke:#000000;stroke-linecap:square;stroke-linejoin:miter;stroke-width:0.8;"/>
   </g>
   <g id="patch_5">
    <path d="M 65.155651 336.759378 
L 479.492857 336.759378 
" style="fill:none;stroke:#000000;stroke-linecap:square;stroke-linejoin:miter;stroke-width:0.8;"/>
   </g>
   <g id="patch_6">
    <path d="M 65.155651 12.2 
L 479.492857 12.2 
" style="fill:none;stroke:#000000;stroke-linecap:square;stroke-linejoin:miter;stroke-width:0.8;"/>
   </g>
   <g id="patch_7">
    <path d="M 251.45735 31.086187 
Q 261.000545 35.942739 269.547314 40.292207 
" style="fill:none;stroke:#000000;stroke-linecap:round;"/>
    <path d="M 266.09214 35.61655 
L 269.547314 40.292207 
L 263.733683 40.250952 
" style="fill:none;stroke:#000000;stroke-linecap:round;"/>
   </g>
   <g id="text_16">
    <g id="patch_8">
     <path d="M 203.268053 29.679555 
L 266.387586 29.679555 
Q 267.687586 29.679555 267.687586 28.379555 
L 267.687586 16.867215 
Q 267.687586 15.567215 266.387586 15.567215 
L 203.268053 15.567215 
Q 201.968053 15.567215 201.968053 16.867215 
L 201.968053 28.379555 
Q 201.968053 29.679555 203.268053 29.679555 
z
" style="fill:#ffffff;stroke:#ffffff;stroke-linejoin:miter;"/>
    </g>
    <!-- 93.1 GFlops -->
    <defs>
     <path d="M 6.796875 2.71875 
C 9.59375 0.328125 13.203125 -2 19.296875 -2 
C 31.40625 -2 43 11.265625 43 32.734375 
C 43 61.4375 30.5 66.078125 23.796875 66.078125 
C 17.09375 66.078125 12.796875 63.140625 9.09375 58.453125 
C 4.703125 53.078125 3.90625 48.28125 3.90625 42.703125 
C 3.90625 36.046875 5.09375 31.953125 7.90625 27.265625 
C 11.703125 21.203125 15.203125 19.921875 19.09375 19.921875 
C 25 19.921875 30.90625 22.796875 34.90625 27.75 
C 34.203125 14.09375 28.09375 4.171875 19.296875 4.171875 
C 15.703125 4.171875 12.796875 5.296875 9.90625 8.0625 
z
M 34.59375 42.90625 
C 34.703125 42.234375 34.703125 40.96875 34.703125 40.5625 
C 34.703125 32.40625 29.90625 26 22.90625 26 
C 18.296875 26 15.90625 28.328125 14.09375 31.34375 
C 11.90625 35.140625 11.796875 38.828125 11.796875 42.703125 
C 11.796875 46.5 11.796875 50.6875 14.59375 54.859375 
C 16.703125 57.859375 19.296875 60 23.796875 60 
C 33 60 34.5 46.875 34.59375 42.90625 
" id="CMSS17-57"/>
     <path d="M 15.703125 31.640625 
L 22.5 31.640625 
C 31.90625 31.640625 34.59375 23.546875 34.59375 17.90625 
C 34.59375 10.203125 30.203125 4.171875 23 4.171875 
C 17.40625 4.171875 9.5 6.9375 5 14.25 
C 4.296875 10.796875 4.296875 10.59375 3.90625 8.21875 
C 8.59375 1.375 16.203125 -2 23.203125 -2 
C 34.59375 -2 43 7.390625 43 17.78125 
C 43 25.59375 37.5 32.140625 30 34.609375 
C 36 37.875 40.40625 44 40.40625 51.140625 
C 40.40625 59.453125 32.703125 66.078125 23.296875 66.078125 
C 14.703125 66.078125 8 60.8125 5.203125 55.15625 
C 5.90625 54.1875 7.703125 51.3125 8.59375 49.828125 
C 10.796875 55.65625 16.5 60 23.203125 60 
C 28.796875 60 32.5 56.359375 32.5 51.109375 
C 32.5 45.671875 29 39.734375 23.09375 38.359375 
C 22.703125 38.359375 16.5 37.765625 15.703125 37.671875 
z
" id="CMSS17-51"/>
     <path d="M 17 7.96875 
L 9 7.96875 
L 9 0 
L 17 0 
z
" id="CMSS17-46"/>
     <path d="M 28.40625 67 
L 26.5 67 
C 21.09375 61.5625 14.796875 60.78125 8.40625 60.78125 
L 8.40625 55 
C 11.296875 55 16 55 20.703125 57.296875 
L 20.703125 5.765625 
L 8.90625 5.765625 
L 8.90625 0 
L 40.203125 0 
L 40.203125 5.765625 
L 28.40625 5.765625 
z
" id="CMSS17-49"/>
    </defs>
    <g transform="translate(203.268053 25.861243)scale(0.13 -0.13)">
     <use transform="scale(0.996264)" xlink:href="#CMSS17-57"/>
     <use transform="translate(46.843624 0)scale(0.996264)" xlink:href="#CMSS17-51"/>
     <use transform="translate(93.687247 0)scale(0.996264)" xlink:href="#CMSS17-46"/>
     <use transform="translate(119.711452 0)scale(0.996264)" xlink:href="#CMSS17-49"/>
     <use transform="translate(197.784188 0)scale(0.996264)" xlink:href="#CMSS17-71"/>
     <use transform="translate(260.242414 0)scale(0.996264)" xlink:href="#CMSS17-70"/>
     <use transform="translate(313.531973 0)scale(0.996264)" xlink:href="#CMSS17-108"/>
     <use transform="translate(335.712696 0)scale(0.996264)" xlink:href="#CMSS17-111"/>
     <use transform="translate(382.55632 0)scale(0.996264)" xlink:href="#CMSS17-112"/>
     <use transform="translate(430.761263 0)scale(0.996264)" xlink:href="#CMSS17-115"/>
    </g>
   </g>
   <g id="patch_9">
    <path d="M 458.625953 283.416403 
Q 468.169148 288.272955 476.715917 292.622423 
" style="fill:none;stroke:#000000;stroke-linecap:round;"/>
    <path d="M 473.260743 287.946765 
L 476.715917 292.622423 
L 470.902286 292.581167 
" style="fill:none;stroke:#000000;stroke-linecap:round;"/>
   </g>
   <g id="text_17">
    <g id="patch_10">
     <path d="M 410.436656 282.00977 
L 473.556189 282.00977 
Q 474.856189 282.00977 474.856189 280.70977 
L 474.856189 269.19743 
Q 474.856189 267.89743 473.556189 267.89743 
L 410.436656 267.89743 
Q 409.136656 267.89743 409.136656 269.19743 
L 409.136656 280.70977 
Q 409.136656 282.00977 410.436656 282.00977 
z
" style="fill:#ffffff;stroke:#ffffff;stroke-linejoin:miter;"/>
    </g>
    <!-- 13.5 GFlops -->
    <defs>
     <path d="M 14.59375 58.625 
L 39.09375 58.625 
L 39.09375 65 
L 7.296875 65 
L 7.296875 27.828125 
L 14 27.828125 
C 15.796875 31.96875 19.5 35 24.296875 35 
C 28.796875 35 33.796875 31.078125 33.796875 19.78125 
C 33.796875 7.703125 26.703125 4.171875 21.5 4.171875 
C 15.09375 4.171875 9.203125 8 6.59375 13.296875 
L 3.40625 7.796875 
C 8 0.765625 15.5 -2 21.5 -2 
C 33.09375 -2 42.203125 7.765625 42.203125 19.578125 
C 42.203125 31.71875 34.09375 41.078125 24.40625 41.078125 
C 20.90625 41.078125 17.5 39.890625 14.59375 37.484375 
z
" id="CMSS17-53"/>
    </defs>
    <g transform="translate(410.436656 278.191458)scale(0.13 -0.13)">
     <use transform="scale(0.996264)" xlink:href="#CMSS17-49"/>
     <use transform="translate(46.843624 0)scale(0.996264)" xlink:href="#CMSS17-51"/>
     <use transform="translate(93.687247 0)scale(0.996264)" xlink:href="#CMSS17-46"/>
     <use transform="translate(119.711452 0)scale(0.996264)" xlink:href="#CMSS17-53"/>
     <use transform="translate(197.784188 0)scale(0.996264)" xlink:href="#CMSS17-71"/>
     <use transform="translate(260.242414 0)scale(0.996264)" xlink:href="#CMSS17-70"/>
     <use transform="translate(313.531973 0)scale(0.996264)" xlink:href="#CMSS17-108"/>
     <use transform="translate(335.712696 0)scale(0.996264)" xlink:href="#CMSS17-111"/>
     <use transform="translate(382.55632 0)scale(0.996264)" xlink:href="#CMSS17-112"/>
     <use transform="translate(430.761263 0)scale(0.996264)" xlink:href="#CMSS17-115"/>
    </g>
   </g>
   <g id="legend_1">
    <g id="patch_11">
     <path d="M 363.107397 104.147575 
L 471.092857 104.147575 
Q 473.492857 104.147575 473.492857 101.747575 
L 473.492857 20.6 
Q 473.492857 18.2 471.092857 18.2 
L 363.107397 18.2 
Q 360.707397 18.2 360.707397 20.6 
L 360.707397 101.747575 
Q 360.707397 104.147575 363.107397 104.147575 
z
" style="fill:#ffffff;opacity:0.8;stroke:#cccccc;stroke-linejoin:miter;"/>
    </g>
    <g id="line2d_33">
     <path d="M 365.507397 27.2 
L 389.507397 27.2 
" style="fill:none;stroke:#1f77b4;stroke-dasharray:5.6,2.4;stroke-dashoffset:0;stroke-width:2;"/>
    </g>
    <g id="line2d_34">
     <g>
      <use style="fill:#ffffff;stroke:#1f77b4;stroke-width:2;" x="377.507397" xlink:href="#m78d380ae53" y="27.2"/>
     </g>
    </g>
    <g id="text_18">
     <!-- parmap, $\mbox{P= 8}$ -->
     <defs>
      <path d="M 37.59375 27.984375 
C 37.59375 37.375 30.90625 43.875 21.90625 43.875 
C 17.5 43.875 12.703125 43.078125 7.203125 39.890625 
L 7.796875 33.359375 
C 10.296875 35.125 14.59375 38 21.796875 38 
C 26.90625 38 30 34.0625 30 27.84375 
L 30 24 
C 14 24 4 19.34375 4 11.34375 
C 4 7.203125 6.5 -1 14.796875 -1 
C 16.296875 -1 24.40625 -1 30.203125 3.390625 
L 30.203125 -0.296875 
L 37.59375 -0.296875 
z
M 30 12.75 
C 30 10.953125 30 8.5625 27 6.78125 
C 24.40625 5.078125 21.09375 5.078125 19.703125 5.078125 
C 14.703125 5.078125 11.296875 7.984375 11.296875 11.625 
C 11.296875 18.921875 26.90625 18.921875 30 18.921875 
z
" id="CMSS17-97"/>
      <path d="M 14.90625 21.296875 
C 14.90625 30.703125 21.796875 37 30.59375 37 
L 30.59375 43.578125 
C 24.203125 43.578125 18.203125 40.390625 14.59375 35.203125 
L 14.59375 43.09375 
L 7.5 43.09375 
L 7.5 0 
L 14.90625 0 
z
" id="CMSS17-114"/>
      <path d="M 17 0.09375 
L 17 7.96875 
L 9 7.96875 
L 9 0 
L 11.5 0 
L 8.90625 -12.5 
L 12.90625 -12.5 
z
" id="CMSS17-44"/>
      <path d="M 32.90625 29 
C 44.90625 29 54.703125 38.328125 54.703125 49.34375 
C 54.703125 60.15625 45.296875 69.578125 32.296875 69.578125 
L 8.90625 69.578125 
L 8.90625 0 
L 17.296875 0 
L 17.296875 29 
z
M 30.09375 64 
C 41.703125 64 46.796875 56.671875 46.796875 49.328125 
C 46.796875 42.5 42.09375 34.78125 30.09375 34.78125 
L 17.09375 34.78125 
L 17.09375 64 
z
" id="CMSS17-80"/>
      <path d="M 64.796875 31.515625 
C 66.296875 31.515625 67.796875 31.515625 67.796875 33.203125 
C 67.796875 35 66.09375 35 64.40625 35 
L 8.59375 35 
C 6.90625 35 5.203125 35 5.203125 33.203125 
C 5.203125 31.515625 6.703125 31.515625 8.203125 31.515625 
z
M 64.40625 14 
C 66.09375 14 67.796875 14 67.796875 15.796875 
C 67.796875 17.484375 66.296875 17.484375 64.796875 17.484375 
L 8.203125 17.484375 
C 6.703125 17.484375 5.203125 17.484375 5.203125 15.796875 
C 5.203125 14 6.90625 14 8.59375 14 
z
" id="CMSS17-61"/>
      <path d="M 30.203125 34.71875 
C 37.796875 37.1875 41.703125 43.125 41.703125 48.96875 
C 41.703125 58.15625 33.703125 66.078125 23.5 66.078125 
C 12.90625 66.078125 5.203125 57.9375 5.203125 49.125 
C 5.203125 43.4375 9 37.546875 16.703125 35.015625 
C 6.90625 31.203125 3.90625 23.625 3.90625 17.953125 
C 3.90625 6.96875 12.796875 -2 23.40625 -2 
C 34.40625 -2 43 7.109375 43 17.78125 
C 43 24.328125 39.09375 31.25 30.203125 34.71875 
M 23.5 38 
C 16.796875 38 12.296875 42.375 12.296875 49 
C 12.296875 55.71875 16.796875 60 23.5 60 
C 29.703125 60 34.59375 56.109375 34.59375 49 
C 34.59375 41.984375 29.796875 38 23.5 38 
M 23.5 4.171875 
C 17.796875 4.171875 11.703125 8.078125 11.703125 18.0625 
C 11.703125 28.328125 18.5 31.921875 23.40625 31.921875 
C 28.796875 31.921875 35.203125 28.125 35.203125 18.0625 
C 35.203125 7.671875 28.59375 4.171875 23.5 4.171875 
" id="CMSS17-56"/>
     </defs>
     <g transform="translate(399.107397 31.4)scale(0.12 -0.12)">
      <use transform="scale(0.996264)" xlink:href="#CMSS17-112"/>
      <use transform="translate(48.204943 0)scale(0.996264)" xlink:href="#CMSS17-97"/>
      <use transform="translate(90.52441 0)scale(0.996264)" xlink:href="#CMSS17-114"/>
      <use transform="translate(122.434182 0)scale(0.996264)" xlink:href="#CMSS17-109"/>
      <use transform="translate(196.663437 0)scale(0.996264)" xlink:href="#CMSS17-97"/>
      <use transform="translate(241.585357 0)scale(0.996264)" xlink:href="#CMSS17-112"/>
      <use transform="translate(289.790301 0)scale(0.996264)" xlink:href="#CMSS17-44"/>
      <use transform="translate(347.043618 0)scale(0.996264)" xlink:href="#CMSS17-80"/>
      <use transform="translate(406.779204 0)scale(0.996264)" xlink:href="#CMSS17-61"/>
      <use transform="translate(510.876252 0)scale(0.996264)" xlink:href="#CMSS17-56"/>
     </g>
    </g>
    <g id="line2d_35">
     <path d="M 365.507397 40.324596 
L 389.507397 40.324596 
" style="fill:none;stroke:#ff7f0e;stroke-dasharray:5.6,2.4;stroke-dashoffset:0;stroke-width:2;"/>
    </g>
    <g id="line2d_36">
     <g>
      <use style="fill:#ffffff;stroke:#ff7f0e;stroke-width:2;" x="377.507397" xlink:href="#me7bd28b01c" y="40.324596"/>
     </g>
    </g>
    <g id="text_19">
     <!-- parmap, $\mbox{P= 4}$ -->
     <defs>
      <path d="M 35.203125 17 
L 44.296875 17 
L 44.296875 23.078125 
L 35.203125 23.078125 
L 35.203125 65.5 
L 26.40625 65.5 
L 2.59375 23.078125 
L 2.59375 17 
L 27.296875 17 
L 27.296875 0 
L 35.203125 0 
z
M 10.296875 23.078125 
C 16.09375 33.234375 27.59375 53.734375 27.59375 60.703125 
L 27.59375 23.078125 
z
" id="CMSS17-52"/>
     </defs>
     <g transform="translate(399.107397 44.524596)scale(0.12 -0.12)">
      <use transform="scale(0.996264)" xlink:href="#CMSS17-112"/>
      <use transform="translate(48.204943 0)scale(0.996264)" xlink:href="#CMSS17-97"/>
      <use transform="translate(90.52441 0)scale(0.996264)" xlink:href="#CMSS17-114"/>
      <use transform="translate(122.434182 0)scale(0.996264)" xlink:href="#CMSS17-109"/>
      <use transform="translate(196.663437 0)scale(0.996264)" xlink:href="#CMSS17-97"/>
      <use transform="translate(241.585357 0)scale(0.996264)" xlink:href="#CMSS17-112"/>
      <use transform="translate(289.790301 0)scale(0.996264)" xlink:href="#CMSS17-44"/>
      <use transform="translate(347.043618 0)scale(0.996264)" xlink:href="#CMSS17-80"/>
      <use transform="translate(406.779204 0)scale(0.996264)" xlink:href="#CMSS17-61"/>
      <use transform="translate(510.876252 0)scale(0.996264)" xlink:href="#CMSS17-52"/>
     </g>
    </g>
    <g id="line2d_37">
     <path d="M 365.507397 53.449192 
L 389.507397 53.449192 
" style="fill:none;stroke:#2ca02c;stroke-dasharray:5.6,2.4;stroke-dashoffset:0;stroke-width:2;"/>
    </g>
    <g id="line2d_38">
     <g>
      <use style="fill:#ffffff;stroke:#2ca02c;stroke-width:2;" x="377.507397" xlink:href="#mf04a6675c7" y="53.449192"/>
     </g>
    </g>
    <g id="text_20">
     <!-- parmap, $\mbox{P= 1}$ -->
     <g transform="translate(399.107397 57.649192)scale(0.12 -0.12)">
      <use transform="scale(0.996264)" xlink:href="#CMSS17-112"/>
      <use transform="translate(48.204943 0)scale(0.996264)" xlink:href="#CMSS17-97"/>
      <use transform="translate(90.52441 0)scale(0.996264)" xlink:href="#CMSS17-114"/>
      <use transform="translate(122.434182 0)scale(0.996264)" xlink:href="#CMSS17-109"/>
      <use transform="translate(196.663437 0)scale(0.996264)" xlink:href="#CMSS17-97"/>
      <use transform="translate(241.585357 0)scale(0.996264)" xlink:href="#CMSS17-112"/>
      <use transform="translate(289.790301 0)scale(0.996264)" xlink:href="#CMSS17-44"/>
      <use transform="translate(347.043618 0)scale(0.996264)" xlink:href="#CMSS17-80"/>
      <use transform="translate(406.779204 0)scale(0.996264)" xlink:href="#CMSS17-61"/>
      <use transform="translate(510.876252 0)scale(0.996264)" xlink:href="#CMSS17-49"/>
     </g>
    </g>
    <g id="line2d_39">
     <path d="M 365.507397 66.573787 
L 389.507397 66.573787 
" style="fill:none;stroke:#d62728;stroke-linecap:square;stroke-width:2;"/>
    </g>
    <g id="line2d_40">
     <g>
      <use style="fill:#ffffff;stroke:#d62728;stroke-width:2;" x="377.507397" xlink:href="#m809bb2afc0" y="66.573787"/>
     </g>
    </g>
    <g id="text_21">
     <!-- map, $\mbox{P= 8}$ -->
     <g transform="translate(399.107397 70.773787)scale(0.12 -0.12)">
      <use transform="scale(0.996264)" xlink:href="#CMSS17-109"/>
      <use transform="translate(74.229254 0)scale(0.996264)" xlink:href="#CMSS17-97"/>
      <use transform="translate(119.151175 0)scale(0.996264)" xlink:href="#CMSS17-112"/>
      <use transform="translate(167.356118 0)scale(0.996264)" xlink:href="#CMSS17-44"/>
      <use transform="translate(224.609436 0)scale(0.996264)" xlink:href="#CMSS17-80"/>
      <use transform="translate(284.345022 0)scale(0.996264)" xlink:href="#CMSS17-61"/>
      <use transform="translate(388.44207 0)scale(0.996264)" xlink:href="#CMSS17-56"/>
     </g>
    </g>
    <g id="line2d_41">
     <path d="M 365.507397 79.698383 
L 389.507397 79.698383 
" style="fill:none;stroke:#9467bd;stroke-linecap:square;stroke-width:2;"/>
    </g>
    <g id="line2d_42">
     <g>
      <use style="fill:#ffffff;stroke:#9467bd;stroke-width:2;" x="377.507397" xlink:href="#ma06b16daf8" y="79.698383"/>
     </g>
    </g>
    <g id="text_22">
     <!-- map, $\mbox{P= 4}$ -->
     <g transform="translate(399.107397 83.898383)scale(0.12 -0.12)">
      <use transform="scale(0.996264)" xlink:href="#CMSS17-109"/>
      <use transform="translate(74.229254 0)scale(0.996264)" xlink:href="#CMSS17-97"/>
      <use transform="translate(119.151175 0)scale(0.996264)" xlink:href="#CMSS17-112"/>
      <use transform="translate(167.356118 0)scale(0.996264)" xlink:href="#CMSS17-44"/>
      <use transform="translate(224.609436 0)scale(0.996264)" xlink:href="#CMSS17-80"/>
      <use transform="translate(284.345022 0)scale(0.996264)" xlink:href="#CMSS17-61"/>
      <use transform="translate(388.44207 0)scale(0.996264)" xlink:href="#CMSS17-52"/>
     </g>
    </g>
    <g id="line2d_43">
     <path d="M 365.507397 92.822979 
L 389.507397 92.822979 
" style="fill:none;stroke:#8c564b;stroke-linecap:square;stroke-width:2;"/>
    </g>
    <g id="line2d_44">
     <g>
      <use style="fill:#ffffff;stroke:#8c564b;stroke-width:2;" x="377.507397" xlink:href="#m15ba408ae1" y="92.822979"/>
     </g>
    </g>
    <g id="text_23">
     <!-- map, $\mbox{P= 1}$ -->
     <g transform="translate(399.107397 97.022979)scale(0.12 -0.12)">
      <use transform="scale(0.996264)" xlink:href="#CMSS17-109"/>
      <use transform="translate(74.229254 0)scale(0.996264)" xlink:href="#CMSS17-97"/>
      <use transform="translate(119.151175 0)scale(0.996264)" xlink:href="#CMSS17-112"/>
      <use transform="translate(167.356118 0)scale(0.996264)" xlink:href="#CMSS17-44"/>
      <use transform="translate(224.609436 0)scale(0.996264)" xlink:href="#CMSS17-80"/>
      <use transform="translate(284.345022 0)scale(0.996264)" xlink:href="#CMSS17-61"/>
      <use transform="translate(388.44207 0)scale(0.996264)" xlink:href="#CMSS17-49"/>
     </g>
    </g>
   </g>
  </g>
 </g>
 <defs>
  <clipPath id="p04e624898b">
   <rect height="324.559378" width="414.337206" x="65.155651" y="12.2"/>
  </clipPath>
 </defs>
</svg>
